<svg xmlns="http://www.w3.org/2000/svg" width="287.424" height="269.394" viewBox="0 0 287.424 269.394">
  <g id="Group_191" data-name="Group 191" transform="translate(0 0)">
    <path id="Path_828" data-name="Path 828" d="M70.242,41.2A14.121,14.121,0,1,0,56.12,55.32,14.134,14.134,0,0,0,70.242,41.2Zm-14.12,5.7a5.7,5.7,0,1,1,5.7-5.7,5.708,5.708,0,0,1-5.7,5.7Zm0,0" transform="translate(-18.422 -11.877)" fill="#585757"/>
    <path id="Path_829" data-name="Path 829" d="M115.882,55.32A14.121,14.121,0,1,0,101.762,41.2,14.138,14.138,0,0,0,115.882,55.32Zm0-19.821a5.7,5.7,0,1,1-5.7,5.7A5.706,5.706,0,0,1,115.882,35.5Zm0,0" transform="translate(-44.635 -11.877)" fill="#585757"/>
    <path id="Path_830" data-name="Path 830" d="M175.642,55.32A14.121,14.121,0,1,0,161.52,41.2,14.138,14.138,0,0,0,175.642,55.32Zm0-19.821a5.7,5.7,0,1,1-5.7,5.7A5.706,5.706,0,0,1,175.642,35.5Zm0,0" transform="translate(-70.847 -11.877)" fill="#585757"/>
    <path id="Path_831" data-name="Path 831" d="M266.378,53.151H368.923a4.21,4.21,0,1,0,0-8.421H266.378a4.21,4.21,0,0,0,0,8.421Zm0,0" transform="translate(-114.994 -19.62)" fill="#585757"/>
    <path id="Path_832" data-name="Path 832" d="M287.187,14.688c-.024-.145-.05-.287-.079-.432-.013-.07-.026-.143-.042-.215A17.612,17.612,0,0,0,269.844,0H17.58A17.6,17.6,0,0,0,0,17.58V251.814a17.6,17.6,0,0,0,17.58,17.58H269.844a17.6,17.6,0,0,0,17.58-17.58V17.58a17.732,17.732,0,0,0-.237-2.892ZM269.844,260.974H17.58a9.171,9.171,0,0,1-9.16-9.16V58.644h23.47a4.21,4.21,0,1,0,0-8.421H8.421V17.58a9.171,9.171,0,0,1,9.16-9.16H269.844a9.178,9.178,0,0,1,8.747,6.438c.011.037.022.072.033.107.033.11.061.217.09.327.011.037.02.075.029.112.026.11.053.221.075.331.046.224.083.452.112.68q.016.115.026.23a8.763,8.763,0,0,1,.048.934V50.223H47.61a4.21,4.21,0,0,0,0,8.421H279v193.17a9.171,9.171,0,0,1-9.16,9.16Zm0,0" fill="#585757"/>
    <path id="Path_833" data-name="Path 833" d="M165.4,275.085a4.211,4.211,0,0,0,5.954,0l8.25-8.252,8.252,8.252a4.211,4.211,0,0,0,5.954-5.956l-8.25-8.25,8.25-8.25a4.211,4.211,0,0,0-5.954-5.956l-8.252,8.252-8.25-8.252a4.211,4.211,0,1,0-5.954,5.956l8.25,8.25-8.25,8.25a4.211,4.211,0,0,0,0,5.956Zm0,0" transform="translate(-72.007 -107.657)" fill="#585757"/>
    <path id="Path_834" data-name="Path 834" d="M294.067,275.085a4.211,4.211,0,0,0,5.954,0l8.25-8.252,8.252,8.252a4.211,4.211,0,0,0,5.954-5.956l-8.25-8.25,8.25-8.25a4.211,4.211,0,0,0-5.954-5.956l-8.252,8.252-8.25-8.252a4.211,4.211,0,0,0-5.954,5.956l8.25,8.25-8.25,8.25a4.211,4.211,0,0,0,0,5.956Zm0,0" transform="translate(-128.444 -107.657)" fill="#585757"/>
    <path id="Path_835" data-name="Path 835" d="M184.214,353.194h76.9a4.21,4.21,0,0,0,0-8.421h-76.9a4.21,4.21,0,1,0,0,8.421Zm0,0" transform="translate(-78.954 -151.226)" fill="#585757"/>
    <path id="Path_836" data-name="Path 836" d="M247.565,160.88H236.081v-8.35a14.03,14.03,0,0,0-14.012-14.015h-64.6a14.03,14.03,0,0,0-14.012,14.015v8.35H131.97A27,27,0,0,0,105,187.85v87.072a27,27,0,0,0,26.97,26.97H206.8a4.21,4.21,0,1,0,0-8.421H131.97a18.571,18.571,0,0,1-18.549-18.549V187.85A18.571,18.571,0,0,1,131.97,169.3H247.565a18.571,18.571,0,0,1,18.549,18.549v87.072a18.571,18.571,0,0,1-18.549,18.549H222.514a4.21,4.21,0,1,0,0,8.421h25.051a27,27,0,0,0,26.97-26.97V187.85a27,27,0,0,0-26.97-26.97Zm-95.69,0v-8.35a5.6,5.6,0,0,1,5.592-5.594h64.6a5.6,5.6,0,0,1,5.594,5.594v8.35Zm0,0" transform="translate(-46.056 -60.756)" fill="#585757"/>
  </g>
</svg>
