<svg xmlns="http://www.w3.org/2000/svg" width="35.991" height="27.561" viewBox="0 0 35.991 27.561">
  <path id="Icon_ionic-ios-checkmark" data-name="Icon ionic-ios-checkmark" d="M46.235,15.432l-2.942-3.025a.632.632,0,0,0-.468-.2h0a.607.607,0,0,0-.468.2L21.967,32.948l-7.421-7.421a.646.646,0,0,0-.936,0L10.635,28.5a.666.666,0,0,0,0,.953l9.36,9.36a2.96,2.96,0,0,0,1.956.953,3.1,3.1,0,0,0,1.939-.919h.017L46.252,16.385A.715.715,0,0,0,46.235,15.432Z" transform="translate(-10.434 -12.206)" fill="#999"/>
</svg>
