<svg id="Icon_ionic-ios-checkbox-outline" data-name="Icon ionic-ios-checkbox-outline" xmlns="http://www.w3.org/2000/svg" width="15.123" height="15.123" viewBox="0 0 15.123 15.123">
  <path id="Path_900" data-name="Path 900" d="M18.363,4.5H5.76A1.259,1.259,0,0,0,4.5,5.76v12.6a1.259,1.259,0,0,0,1.26,1.26h12.6a1.259,1.259,0,0,0,1.26-1.26V5.76A1.259,1.259,0,0,0,18.363,4.5Zm.158,13.705a.316.316,0,0,1-.315.315H5.918a.316.316,0,0,1-.315-.315V5.918A.316.316,0,0,1,5.918,5.6H18.205a.316.316,0,0,1,.315.315Z" transform="translate(-4.5 -4.5)" fill="#2a2a2a"/>
</svg>
