<svg id="Group_236" data-name="Group 236" xmlns="http://www.w3.org/2000/svg" width="15.123" height="15.123" viewBox="0 0 15.123 15.123">
  <g id="Icon_ionic-ios-checkbox-outline" data-name="Icon ionic-ios-checkbox-outline">
    <path id="Path_900" data-name="Path 900" d="M18.363,4.5H5.76A1.259,1.259,0,0,0,4.5,5.76v12.6a1.259,1.259,0,0,0,1.26,1.26h12.6a1.259,1.259,0,0,0,1.26-1.26V5.76A1.259,1.259,0,0,0,18.363,4.5Zm.158,13.705a.316.316,0,0,1-.315.315H5.918a.316.316,0,0,1-.315-.315V5.918A.316.316,0,0,1,5.918,5.6H18.205a.316.316,0,0,1,.315.315Z" transform="translate(-4.5 -4.5)" fill="#469dc9"/>
    <path id="Path_901" data-name="Path 901" d="M18.941,12.966l-.693-.713a.149.149,0,0,0-.11-.047h0a.143.143,0,0,0-.11.047l-4.8,4.84-1.749-1.749a.152.152,0,0,0-.221,0l-.7.7a.157.157,0,0,0,0,.224l2.205,2.205a.7.7,0,0,0,.461.224.731.731,0,0,0,.457-.217h0l5.265-5.293A.168.168,0,0,0,18.941,12.966Z" transform="translate(-7.141 -7.89)" fill="#469dc9"/>
  </g>
</svg>
