<svg id="team" xmlns="http://www.w3.org/2000/svg" width="209.781" height="206.848" viewBox="0 0 209.781 206.848">
  <path id="Path_825" data-name="Path 825" d="M410.855,214.358a17.238,17.238,0,1,1,17.238-17.238A17.238,17.238,0,0,1,410.855,214.358Zm0-27.58A10.342,10.342,0,1,0,421.2,197.121a10.343,10.343,0,0,0-10.342-10.342Zm0,0" transform="translate(-257.693 -117.829)" fill="#469dc9"/>
  <path id="Path_826" data-name="Path 826" d="M131.32,214.358a17.238,17.238,0,1,1,17.238-17.238A17.238,17.238,0,0,1,131.32,214.358Zm0-27.58a10.342,10.342,0,1,0,10.342,10.342,10.343,10.343,0,0,0-10.342-10.342Zm0,0" transform="translate(-74.687 -117.829)" fill="#469dc9"/>
  <path id="Path_827" data-name="Path 827" d="M173.847,118.922l32.865-29.875a9.632,9.632,0,0,0-12.869-14.332l-24.754,22h-34.8l-25.947,31.717V41.553h34.475v13.79h56.8L191.35,34.657l8.273-20.684H160.057V.184H101.449V128.429L75.5,96.712h-34.8l-24.754-22A9.636,9.636,0,0,0,3.078,89.047l32.87,29.875v81.214H1.473v6.9H208.32v-6.9H173.846Zm-13.79-98.054h29.382l-5.514,13.79,5.514,13.79H149.713V41.553h10.343ZM108.344,7.078h44.817v27.58H108.344ZM70.422,200.135H60.08V151.871h-6.9v48.264H42.843V115.873L7.72,83.957A2.761,2.761,0,0,1,7.3,80.409a2.727,2.727,0,0,1,4.075-.53l26.708,23.727h34.15l25.635,31.332a2.8,2.8,0,1,1-4.3,3.6l-23.151-27Zm62.055,0H77.318V130.153l11.033,12.859a9.7,9.7,0,0,0,12.754,1.744c.128-.086.239-.2.364-.29v28.09h6.894V144.473c.129.1.244.214.382.3a9.7,9.7,0,0,0,12.728-1.755l11-12.87Zm34.474,0H156.609V151.871h-6.9v48.264H139.371v-88.6l-23.149,27.012a2.8,2.8,0,0,1-3.685.492,2.792,2.792,0,0,1-.614-4.093l25.635-31.342H171.71l26.7-23.738a2.668,2.668,0,0,1,2.158-.665,2.706,2.706,0,0,1,1.934,1.214,2.736,2.736,0,0,1-.432,3.526l-35.123,31.93Zm0,0" transform="translate(0 -0.184)" fill="#469dc9"/>
</svg>
