<svg xmlns="http://www.w3.org/2000/svg" xmlns:xlink="http://www.w3.org/1999/xlink" width="185.902" height="185.903" viewBox="0 0 185.902 185.903">
  <defs>
    <linearGradient id="linear-gradient" x1="-0.834" y1="3.082" x2="3.438" y2="-0.404" gradientUnits="objectBoundingBox">
      <stop offset="0" stop-color="#469dc9"/>
      <stop offset="1" stop-color="#38c172"/>
    </linearGradient>
  </defs>
  <g id="development" opacity="0.9">
    <g id="Group_156" data-name="Group 156" transform="translate(0)">
      <g id="Group_155" data-name="Group 155">
        <path id="Path_794" data-name="Path 794" d="M67.091,37.992l-3.663-3.153V33.326l3.663-3.153A3.1,3.1,0,0,0,68.1,27.19,33.443,33.443,0,0,0,65.687,20a3.1,3.1,0,0,0-2.529-1.782l-4.773-.436q-.486-.7-1.006-1.362l1.03-4.5a3.1,3.1,0,0,0-.952-3,34.986,34.986,0,0,0-6.23-4.46,3.1,3.1,0,0,0-3.068.024L44.051,6.868c-.554-.191-1.122-.369-1.713-.533l-1.9-4.454A3.1,3.1,0,0,0,37.591,0H30.577a3.1,3.1,0,0,0-2.85,1.882l-1.9,4.454c-.59.163-1.159.342-1.713.533L20.011,4.484a3.115,3.115,0,0,0-3.068-.024,35.106,35.106,0,0,0-6.23,4.46,3.1,3.1,0,0,0-.953,3l1.03,4.5c-.347.442-.682.9-1.006,1.364l-4.773.436A3.1,3.1,0,0,0,2.481,20,33.416,33.416,0,0,0,.067,27.192a3.1,3.1,0,0,0,1.01,2.98L4.74,33.326v1.513L1.077,37.991a3.1,3.1,0,0,0-1.01,2.983,33.443,33.443,0,0,0,2.414,7.189A3.1,3.1,0,0,0,5.01,49.946l4.773.436q.486.7,1.006,1.362l-1.03,4.5a3.1,3.1,0,0,0,.953,3A34.709,34.709,0,0,0,16.944,63.7a3.091,3.091,0,0,0,3.064-.024L24.117,61.3c.554.191,1.122.369,1.713.533l1.9,4.454a3.1,3.1,0,0,0,2.85,1.882H37.59a3.1,3.1,0,0,0,2.85-1.882l1.9-4.454c.59-.163,1.159-.342,1.713-.533l4.106,2.384a3.107,3.107,0,0,0,3.359-.16l5.676-4.064a3.1,3.1,0,0,0,1.217-3.213l-1.03-4.5c.346-.442.682-.9,1.006-1.364l4.773-.436a3.1,3.1,0,0,0,2.529-1.782A33.436,33.436,0,0,0,68.1,40.975,3.1,3.1,0,0,0,67.091,37.992Zm-8.784.614,3.3,2.838q-.356,1.248-.849,2.5l-4.424.4A3.1,3.1,0,0,0,53.979,45.8a22.7,22.7,0,0,1-2.284,3.089,3.1,3.1,0,0,0-.7,2.744l.911,3.979-2.371,1.7L45.886,55.2a3.117,3.117,0,0,0-2.743-.182A23.112,23.112,0,0,1,39.4,56.183a3.1,3.1,0,0,0-2.162,1.806l-1.7,3.979h-2.92l-1.7-3.979a3.085,3.085,0,0,0-2.162-1.806,23.2,23.2,0,0,1-3.741-1.168,3.093,3.093,0,0,0-2.741.182l-3.8,2.2q-1.16-.744-2.259-1.613l.95-4.148a3.1,3.1,0,0,0-.694-2.741A22.785,22.785,0,0,1,14.19,45.8a3.1,3.1,0,0,0-2.354-1.459l-4.424-.4q-.493-1.253-.849-2.5l3.3-2.838a3.1,3.1,0,0,0,1.076-2.348V31.907a3.105,3.105,0,0,0-1.076-2.348l-3.3-2.841q.356-1.244.849-2.5l4.423-.4a3.1,3.1,0,0,0,2.354-1.459,22.7,22.7,0,0,1,2.284-3.089,3.1,3.1,0,0,0,.7-2.744l-.95-4.148q1.1-.867,2.26-1.616l3.8,2.206a3.128,3.128,0,0,0,2.743.182,23.111,23.111,0,0,1,3.741-1.168,3.1,3.1,0,0,0,2.162-1.806l1.7-3.978h2.92l1.7,3.979A3.084,3.084,0,0,0,39.4,11.982a23.162,23.162,0,0,1,3.741,1.168,3.107,3.107,0,0,0,2.743-.182l3.8-2.206q1.162.749,2.26,1.616L51,16.527a3.1,3.1,0,0,0,.694,2.741,22.785,22.785,0,0,1,2.287,3.092,3.1,3.1,0,0,0,2.354,1.459l4.424.4q.493,1.253.849,2.5l-3.3,2.838a3.1,3.1,0,0,0-1.076,2.348v4.351A3.105,3.105,0,0,0,58.307,38.606Z" transform="translate(-0.001)" fill="url(#linear-gradient)"/>
      </g>
    </g>
    <g id="Group_158" data-name="Group 158" transform="translate(18.591 18.59)">
      <g id="Group_157" data-name="Group 157">
        <path id="Path_795" data-name="Path 795" d="M63.494,48A15.492,15.492,0,1,0,78.986,63.492,15.492,15.492,0,0,0,63.494,48Zm0,24.787a9.3,9.3,0,1,1,9.3-9.3A9.3,9.3,0,0,1,63.494,72.787Z" transform="translate(-48.002 -48)" fill="url(#linear-gradient)"/>
      </g>
    </g>
    <g id="Group_160" data-name="Group 160" transform="translate(6.197 154.919)">
      <g id="Group_159" data-name="Group 159">
        <path id="Path_796" data-name="Path 796" d="M43.889,400H19.1a3.1,3.1,0,0,0-3.1,3.1v24.789a3.1,3.1,0,0,0,3.1,3.1H43.888a3.1,3.1,0,0,0,3.1-3.1V403.1A3.1,3.1,0,0,0,43.889,400Zm-3.1,24.787H22.2V406.2h18.59Z" transform="translate(-16.002 -400)" fill="url(#linear-gradient)"/>
      </g>
    </g>
    <g id="Group_162" data-name="Group 162" transform="translate(52.673 145.624)">
      <g id="Group_161" data-name="Group 161">
        <path id="Path_797" data-name="Path 797" d="M163.889,376H139.1a3.1,3.1,0,0,0-3.1,3.1v34.084a3.1,3.1,0,0,0,3.1,3.1h24.789a3.1,3.1,0,0,0,3.1-3.1V379.1A3.1,3.1,0,0,0,163.889,376Zm-3.1,34.082H142.2V382.2h18.59Z" transform="translate(-136.002 -376)" fill="url(#linear-gradient)"/>
      </g>
    </g>
    <g id="Group_164" data-name="Group 164" transform="translate(99.149 133.231)">
      <g id="Group_163" data-name="Group 163">
        <path id="Path_798" data-name="Path 798" d="M283.889,344H259.1a3.1,3.1,0,0,0-3.1,3.1v46.477a3.1,3.1,0,0,0,3.1,3.1h24.789a3.1,3.1,0,0,0,3.1-3.1h0V347.1A3.1,3.1,0,0,0,283.889,344Zm-3.1,46.476H262.2V350.2h18.59Z" transform="translate(-256.002 -344)" fill="url(#linear-gradient)"/>
      </g>
    </g>
    <g id="Group_166" data-name="Group 166" transform="translate(145.625 105.345)">
      <g id="Group_165" data-name="Group 165">
        <path id="Path_799" data-name="Path 799" d="M403.889,272H379.1a3.1,3.1,0,0,0-3.1,3.1V349.46a3.1,3.1,0,0,0,3.1,3.1h24.789a3.1,3.1,0,0,0,3.1-3.1V275.1A3.1,3.1,0,0,0,403.889,272Zm-3.1,74.361H382.2V278.2h18.59Z" transform="translate(-376.002 -272)" fill="url(#linear-gradient)"/>
      </g>
    </g>
    <g id="Group_168" data-name="Group 168" transform="translate(4.496 62.086)">
      <g id="Group_167" data-name="Group 167">
        <path id="Path_800" data-name="Path 800" d="M113.368,166.518l-.055-.017-21.689-6.2-1.7,5.961L105.1,170.6,11.611,231.958l3.4,5.18,91.958-60.347-5.1,16.567,5.921,1.822,7.626-24.787A3.1,3.1,0,0,0,113.368,166.518Z" transform="translate(-11.611 -160.305)" fill="url(#linear-gradient)"/>
      </g>
    </g>
    <g id="Group_170" data-name="Group 170" transform="translate(120.837 12.393)">
      <g id="Group_169" data-name="Group 169">
        <path id="Path_801" data-name="Path 801" d="M360.642,49.449a3.1,3.1,0,0,0-1.7-.845l-13.351-2.042-6-12.781a3.1,3.1,0,0,0-5.61,0l-6,12.781L314.633,48.6a3.1,3.1,0,0,0-1.751,5.225l9.752,9.994-2.307,14.152a3.1,3.1,0,0,0,4.557,3.21l11.9-6.581,11.905,6.581a3.1,3.1,0,0,0,4.557-3.21l-2.307-14.152L360.7,53.83A3.1,3.1,0,0,0,360.642,49.449ZM345.416,60.617a3.1,3.1,0,0,0-.84,2.663l1.533,9.4-7.82-4.324a3.1,3.1,0,0,0-3,0l-7.82,4.324L329,63.28a3.094,3.094,0,0,0-.84-2.663l-6.634-6.8,9.026-1.38a3.092,3.092,0,0,0,2.337-1.746l3.9-8.3,3.9,8.3a3.093,3.093,0,0,0,2.337,1.746l9.026,1.38Z" transform="translate(-312.002 -31.998)" fill="url(#linear-gradient)"/>
      </g>
    </g>
    <g id="Group_172" data-name="Group 172" transform="translate(138.675 73.847)">
      <g id="Group_171" data-name="Group 171">
        <path id="Path_802" data-name="Path 802" d="M370.956,190.672a34.026,34.026,0,0,1-5.9.514h-.047a34.138,34.138,0,0,1-5.885-.509l-1.065,6.106a61.749,61.749,0,0,0,7,.6,40.159,40.159,0,0,0,6.976-.611Z" transform="translate(-358.057 -190.672)" fill="url(#linear-gradient)"/>
      </g>
    </g>
    <g id="Group_174" data-name="Group 174" transform="translate(151.443 0.584)">
      <g id="Group_173" data-name="Group 173">
        <path id="Path_803" data-name="Path 803" d="M392.076,1.508l-1.05,6.106a33.786,33.786,0,0,1,11.126,4.009l3.083-5.374A39.888,39.888,0,0,0,392.076,1.508Z" transform="translate(-391.026 -1.508)" fill="url(#linear-gradient)"/>
      </g>
    </g>
    <g id="Group_176" data-name="Group 176" transform="translate(125.389 0.62)">
      <g id="Group_175" data-name="Group 175">
        <path id="Path_804" data-name="Path 804" d="M336.882,1.6a40.014,40.014,0,0,0-13.129,4.823l3.12,5.356a33.831,33.831,0,0,1,11.1-4.079Z" transform="translate(-323.753 -1.602)" fill="url(#linear-gradient)"/>
      </g>
    </g>
    <g id="Group_178" data-name="Group 178" transform="translate(162.681 62.173)">
      <g id="Group_177" data-name="Group 177">
        <path id="Path_805" data-name="Path 805" d="M429.1,160.531a34.2,34.2,0,0,1-9.062,7.616l3.107,5.362a40.332,40.332,0,0,0,10.7-8.99Z" transform="translate(-420.042 -160.531)" fill="url(#linear-gradient)"/>
      </g>
    </g>
    <g id="Group_180" data-name="Group 180" transform="translate(177.663 40.164)">
      <g id="Group_179" data-name="Group 179">
        <path id="Path_806" data-name="Path 806" d="M465.6,103.7l-4.828.115a34,34,0,0,1-2.044,11.658l5.825,2.118a40.289,40.289,0,0,0,2.414-13.867Z" transform="translate(-458.725 -103.703)" fill="url(#linear-gradient)"/>
      </g>
    </g>
    <g id="Group_182" data-name="Group 182" transform="translate(171.66 14.282)">
      <g id="Group_181" data-name="Group 181">
        <path id="Path_807" data-name="Path 807" d="M447.954,36.875l-4.729,4a33.938,33.938,0,0,1,5.956,10.218L455,48.951A40.074,40.074,0,0,0,447.954,36.875Z" transform="translate(-443.225 -36.875)" fill="url(#linear-gradient)"/>
      </g>
    </g>
    <g id="Group_184" data-name="Group 184" transform="translate(107.736 14.457)">
      <g id="Group_183" data-name="Group 183">
        <path id="Path_808" data-name="Path 808" d="M285.145,37.328a40.146,40.146,0,0,0-6.971,12.124L284,51.559A33.939,33.939,0,0,1,289.9,41.3Z" transform="translate(-278.174 -37.328)" fill="url(#linear-gradient)"/>
      </g>
    </g>
    <g id="Group_186" data-name="Group 186" transform="translate(114.807 62.222)">
      <g id="Group_185" data-name="Group 185">
        <path id="Path_809" data-name="Path 809" d="M301.17,160.656l-4.738,3.994a40.345,40.345,0,0,0,10.716,8.974l3.1-5.368A34.149,34.149,0,0,1,301.17,160.656Z" transform="translate(-296.432 -160.656)" fill="url(#linear-gradient)"/>
      </g>
    </g>
    <g id="Group_188" data-name="Group 188" transform="translate(105.347 40.349)">
      <g id="Group_187" data-name="Group 187">
        <path id="Path_810" data-name="Path 810" d="M278.2,104.18l-6.2.012a40.114,40.114,0,0,0,2.443,13.767l5.818-2.13A33.946,33.946,0,0,1,278.2,104.18Z" transform="translate(-272.006 -104.18)" fill="url(#linear-gradient)"/>
      </g>
    </g>
  </g>
</svg>
