<svg xmlns="http://www.w3.org/2000/svg" width="44.718" height="44.718" viewBox="0 0 44.718 44.718">
  <path id="Icon_feather-message-circle" data-name="Icon feather-message-circle" d="M46.218,24.2a19.422,19.422,0,0,1-2.086,8.807A19.7,19.7,0,0,1,26.518,43.9a19.422,19.422,0,0,1-8.807-2.086L4.5,46.218,8.9,33.007A19.422,19.422,0,0,1,6.818,24.2,19.7,19.7,0,0,1,17.711,6.586,19.422,19.422,0,0,1,26.518,4.5h1.159A19.654,19.654,0,0,1,46.218,23.041Z" transform="translate(-3 -3)" fill="none" stroke="#469dc9" stroke-linecap="round" stroke-linejoin="round" stroke-width="3"/>
</svg>
