<svg id="linkedin2" xmlns="http://www.w3.org/2000/svg" width="25.102" height="23.309" viewBox="0 0 25.102 23.309">
  <path id="Path_4" data-name="Path 4" d="M12,12h4.962v2.543h.071A5.5,5.5,0,0,1,21.931,12c5.237,0,6.205,3.261,6.205,7.5v8.636H22.965V20.481c0-1.826-.038-4.175-2.69-4.175-2.694,0-3.1,1.988-3.1,4.042v7.789H12Z" transform="translate(-3.035 -4.828)" fill="#fff"/>
  <path id="Path_5" data-name="Path 5" d="M2,12H7.379V28.137H2Z" transform="translate(-2 -4.828)" fill="#fff"/>
  <path id="Path_6" data-name="Path 6" d="M7.379,6.689A2.689,2.689,0,1,1,4.689,4,2.689,2.689,0,0,1,7.379,6.689Z" transform="translate(-2 -4)" fill="#fff"/>
</svg>
