<svg xmlns="http://www.w3.org/2000/svg" width="26.304" height="26.35" viewBox="0 0 26.304 26.35">
  <path id="Icon_feather-phone-call" data-name="Icon feather-phone-call" d="M18.156,6.134a5.792,5.792,0,0,1,4.576,4.576M18.156,1.5a10.426,10.426,0,0,1,9.21,9.2m-1.158,9.244v3.475a2.317,2.317,0,0,1-2.525,2.317,22.925,22.925,0,0,1-10-3.556,22.59,22.59,0,0,1-6.951-6.951A22.925,22.925,0,0,1,3.177,5.184,2.317,2.317,0,0,1,5.483,2.658H8.958a2.317,2.317,0,0,1,2.317,1.993,14.874,14.874,0,0,0,.811,3.255,2.317,2.317,0,0,1-.521,2.444l-1.471,1.471a18.535,18.535,0,0,0,6.951,6.951L18.515,17.3a2.317,2.317,0,0,1,2.444-.521,14.874,14.874,0,0,0,3.255.811A2.317,2.317,0,0,1,26.207,19.942Z" transform="translate(-2.167 -0.396)" fill="none" stroke="#fff" stroke-linecap="round" stroke-linejoin="round" stroke-width="2"/>
</svg>
