<svg xmlns="http://www.w3.org/2000/svg" width="44.878" height="44.958" viewBox="0 0 44.878 44.958">
  <path id="Icon_feather-phone-call" data-name="Icon feather-phone-call" d="M29.008,9.489A9.986,9.986,0,0,1,36.9,17.378M29.008,1.5A17.975,17.975,0,0,1,44.886,17.358m-2,15.938v5.992a3.994,3.994,0,0,1-4.354,3.994A39.525,39.525,0,0,1,21.3,37.15,38.946,38.946,0,0,1,9.315,25.167,39.525,39.525,0,0,1,3.184,7.851,3.994,3.994,0,0,1,7.158,3.5H13.15a3.994,3.994,0,0,1,3.994,3.435,25.644,25.644,0,0,0,1.4,5.612,3.994,3.994,0,0,1-.9,4.214L15.107,19.3A31.955,31.955,0,0,0,27.091,31.278l2.536-2.536a3.994,3.994,0,0,1,4.214-.9,25.644,25.644,0,0,0,5.612,1.4A3.994,3.994,0,0,1,42.889,33.3Z" transform="translate(-1.666 0.156)" fill="none" stroke="#469dc9" stroke-linecap="round" stroke-linejoin="round" stroke-width="3"/>
</svg>
