<svg id="review_1_" data-name="review (1)" xmlns="http://www.w3.org/2000/svg" width="183.792" height="184.31" viewBox="0 0 183.792 184.31">
  <path id="Path_817" data-name="Path 817" d="M183.748,127.244a9.162,9.162,0,0,0-8.837-6.407h-4.059V21.689a3.1,3.1,0,0,0-3.1-3.1H124.377V3.1a3.1,3.1,0,0,0-3.1-3.1H3.539a3.1,3.1,0,0,0-3.1,3.1V164.215a3.1,3.1,0,0,0,3.1,3.1H105.91l-1.549,4.778a9.3,9.3,0,0,0,14.309,10.4l16.241-11.829a3.121,3.121,0,0,1,3.684,0L154.866,182.5a9.3,9.3,0,0,0,14.307-10.407l-6.221-19.167a3.066,3.066,0,0,1,1.136-3.433l16.3-11.835a9.183,9.183,0,0,0,3.359-10.415ZM164.656,24.787v96.05h-9.884a3.076,3.076,0,0,1-.958-.157,3.157,3.157,0,0,1-1.982-1.977L145.6,99.551a9.3,9.3,0,0,0-17.661,0L124.377,110.5V80.558h24.787a3.1,3.1,0,0,0,0-6.2H124.377V61.968h24.787a3.1,3.1,0,0,0,0-6.2H124.377V43.377h24.787a3.1,3.1,0,1,0,0-6.2H124.377V24.787ZM6.638,161.116V6.2H118.18v114.64H98.629a9.3,9.3,0,0,0-5.478,16.822l16.3,11.832a3.07,3.07,0,0,1,1.141,3.448l-2.66,8.177Zm170.1-28.468-16.3,11.835a9.245,9.245,0,0,0-3.384,10.371L163.286,174a3.1,3.1,0,0,1-4.772,3.475l-16.282-11.844a9.372,9.372,0,0,0-10.947,0l-16.264,11.835A3.1,3.1,0,0,1,110.248,174l6.226-19.14a9.25,9.25,0,0,0-3.387-10.386L96.8,132.651a3.1,3.1,0,0,1,1.828-5.617h20.14a8.663,8.663,0,0,0,3.737-.812l.059-.033.056-.018c.044-.02.074-.056.118-.079a9.2,9.2,0,0,0,4.864-5.474l6.229-19.146a3.1,3.1,0,0,1,5.887,0l6.23,19.161a9.3,9.3,0,0,0,8.825,6.4h20.14a3.1,3.1,0,0,1,1.831,5.614Zm0,0" transform="translate(-0.441)" fill="#469dc9"/>
  <path id="Path_818" data-name="Path 818" d="M67.54,70.2H135.7a3.1,3.1,0,0,0,0-6.2H67.54a3.1,3.1,0,0,0,0,6.2Zm0,0" transform="translate(-39.654 -39.213)" fill="#469dc9"/>
  <path id="Path_819" data-name="Path 819" d="M67.54,134.2H135.7a3.1,3.1,0,1,0,0-6.2H67.54a3.1,3.1,0,1,0,0,6.2Zm0,0" transform="translate(-39.654 -78.426)" fill="#469dc9"/>
  <path id="Path_820" data-name="Path 820" d="M67.54,198.2H135.7a3.1,3.1,0,0,0,0-6.2H67.54a3.1,3.1,0,0,0,0,6.2Zm0,0" transform="translate(-39.654 -117.639)" fill="#469dc9"/>
  <path id="Path_821" data-name="Path 821" d="M138.8,259.1a3.1,3.1,0,0,0-3.1-3.1H67.539a3.1,3.1,0,1,0,0,6.2H135.7A3.1,3.1,0,0,0,138.8,259.1Zm0,0" transform="translate(-39.654 -156.852)" fill="#469dc9"/>
</svg>
