<svg id="landing-page" xmlns="http://www.w3.org/2000/svg" width="145.116" height="140.279" viewBox="0 0 145.116 140.279">
  <path id="Path_843" data-name="Path 843" d="M153.861,24H23.256A7.264,7.264,0,0,0,16,31.256V157.024a7.264,7.264,0,0,0,7.256,7.256h130.6a7.264,7.264,0,0,0,7.256-7.256V31.256A7.264,7.264,0,0,0,153.861,24Zm-130.6,4.837h130.6a2.421,2.421,0,0,1,2.419,2.419V43.349H20.837V31.256A2.421,2.421,0,0,1,23.256,28.837Zm130.6,130.6H23.256a2.421,2.421,0,0,1-2.419-2.419V48.186H156.279V157.024A2.421,2.421,0,0,1,153.861,159.442Z" transform="translate(-16 -24)" fill="#469dc9"/>
  <ellipse id="Ellipse_36" data-name="Ellipse 36" cx="2.5" cy="1.5" rx="2.5" ry="1.5" transform="translate(28.721 11)" fill="#469dc9"/>
  <ellipse id="Ellipse_37" data-name="Ellipse 37" cx="3.5" cy="1.5" rx="3.5" ry="1.5" transform="translate(18.721 11)" fill="#469dc9"/>
  <ellipse id="Ellipse_38" data-name="Ellipse 38" cx="3" cy="1.5" rx="3" ry="1.5" transform="translate(8.721 11)" fill="#469dc9"/>
  <path id="Path_844" data-name="Path 844" d="M177.675,136H66.419A2.419,2.419,0,0,0,64,138.419v38.7a2.419,2.419,0,0,0,2.419,2.419H177.675a2.419,2.419,0,0,0,2.419-2.419v-38.7A2.419,2.419,0,0,0,177.675,136Zm-39.65,35.815,5.79-5.79,8.673,8.673h-12.3ZM134.14,174.7H114.791l9.674-12.9Zm-25.4,0H90.413l12.285-17.55,9.273,13.248Zm66.512,0H159.327l-13.8-13.8a2.419,2.419,0,0,0-3.421,0l-7.012,7.012-8.692-11.59a2.419,2.419,0,0,0-3.87,0l-7.505,10.007-10.346-14.78a2.419,2.419,0,0,0-3.963,0L84.508,174.7H68.837V140.837H175.256Z" transform="translate(-49.488 -102.139)" fill="#469dc9"/>
  <ellipse id="Ellipse_39" data-name="Ellipse 39" cx="1.5" cy="2" rx="1.5" ry="2" transform="translate(85.721 49)" fill="#469dc9"/>
  <ellipse id="Ellipse_40" data-name="Ellipse 40" cx="3" cy="2" rx="3" ry="2" transform="translate(79.721 83)" fill="#469dc9"/>
  <ellipse id="Ellipse_41" data-name="Ellipse 41" cx="3" cy="2" rx="3" ry="2" transform="translate(69.721 83)" fill="#469dc9"/>
  <circle id="Ellipse_42" data-name="Ellipse 42" cx="2" cy="2" r="2" transform="translate(60.721 83)" fill="#469dc9"/>
  <path id="Path_845" data-name="Path 845" d="M95.442,328H66.419A2.419,2.419,0,0,0,64,330.419v19.349a2.419,2.419,0,0,0,2.419,2.419H95.442a2.419,2.419,0,0,0,2.419-2.419V330.419A2.419,2.419,0,0,0,95.442,328Zm-2.419,4.837V346.67l-10.581-8.465a2.419,2.419,0,0,0-3.023,0L68.837,346.67V332.837Zm-6.895,14.512h-10.4l5.2-4.158Z" transform="translate(-49.488 -236.093)" fill="#469dc9"/>
  <path id="Path_846" data-name="Path 846" d="M231.442,328H202.419A2.419,2.419,0,0,0,200,330.419v19.349a2.419,2.419,0,0,0,2.419,2.419h29.023a2.419,2.419,0,0,0,2.419-2.419V330.419A2.419,2.419,0,0,0,231.442,328Zm-2.419,4.837V346.67l-10.581-8.465a2.419,2.419,0,0,0-3.023,0l-10.581,8.465V332.837Zm-6.895,14.512h-10.4l5.2-4.158Z" transform="translate(-144.372 -236.093)" fill="#469dc9"/>
  <path id="Path_847" data-name="Path 847" d="M367.442,328H338.419A2.419,2.419,0,0,0,336,330.419v19.349a2.419,2.419,0,0,0,2.419,2.419h29.023a2.419,2.419,0,0,0,2.419-2.419V330.419A2.419,2.419,0,0,0,367.442,328Zm-2.419,4.837V346.67l-10.581-8.465a2.419,2.419,0,0,0-3.023,0l-10.581,8.465V332.837Zm-6.895,14.512h-10.4l5.2-4.158Z" transform="translate(-239.256 -236.093)" fill="#469dc9"/>
  <path id="Path_848" data-name="Path 848" d="M101.767,424H82.419a2.419,2.419,0,0,0,0,4.837h19.349a2.419,2.419,0,0,0,0-4.837Z" transform="translate(-60.651 -303.07)" fill="#469dc9"/>
  <path id="Path_849" data-name="Path 849" d="M237.767,424H218.419a2.419,2.419,0,0,0,0,4.837h19.349a2.419,2.419,0,1,0,0-4.837Z" transform="translate(-155.535 -303.07)" fill="#469dc9"/>
  <path id="Path_850" data-name="Path 850" d="M373.767,424H354.419a2.419,2.419,0,0,0,0,4.837h19.349a2.419,2.419,0,0,0,0-4.837Z" transform="translate(-250.418 -303.07)" fill="#469dc9"/>
</svg>
