<svg id="landing-page" xmlns="http://www.w3.org/2000/svg" width="98.351" height="95.072" viewBox="0 0 98.351 95.072">
  <path id="Path_843" data-name="Path 843" d="M109.433,24H20.918A4.923,4.923,0,0,0,16,28.918v85.237a4.923,4.923,0,0,0,4.918,4.918h88.515a4.923,4.923,0,0,0,4.918-4.918V28.918A4.923,4.923,0,0,0,109.433,24ZM20.918,27.278h88.515a1.641,1.641,0,0,1,1.639,1.639v8.2H19.278v-8.2A1.641,1.641,0,0,1,20.918,27.278Zm88.515,88.516H20.918a1.641,1.641,0,0,1-1.639-1.639V40.392h91.794v73.763A1.641,1.641,0,0,1,109.433,115.794Z" transform="translate(-16 -24)" fill="#2a2a2a"/>
  <ellipse id="Ellipse_36" data-name="Ellipse 36" cx="2" cy="1" rx="2" ry="1" transform="translate(19.117 7)" fill="#2a2a2a"/>
  <ellipse id="Ellipse_37" data-name="Ellipse 37" cx="2" cy="1" rx="2" ry="1" transform="translate(13.117 7)" fill="#2a2a2a"/>
  <ellipse id="Ellipse_38" data-name="Ellipse 38" cx="2" cy="1" rx="2" ry="1" transform="translate(6.117 7)" fill="#2a2a2a"/>
  <path id="Path_844" data-name="Path 844" d="M141.041,136h-75.4A1.639,1.639,0,0,0,64,137.639v26.227a1.639,1.639,0,0,0,1.639,1.639h75.4a1.639,1.639,0,0,0,1.639-1.639V137.639A1.639,1.639,0,0,0,141.041,136Zm-26.872,24.273,3.924-3.924,5.878,5.878h-8.337Zm-2.633,1.954H98.423l6.557-8.742Zm-17.211,0H81.9l8.326-11.894,6.285,8.978Zm45.077,0h-10.8l-9.355-9.355a1.639,1.639,0,0,0-2.318,0l-4.752,4.752-5.891-7.855a1.639,1.639,0,0,0-2.623,0l-5.087,6.782L91.57,146.534a1.639,1.639,0,0,0-2.686,0L77.9,162.227H67.278V139.278H139.4Z" transform="translate(-54.165 -113.052)" fill="#2a2a2a"/>
  <ellipse id="Ellipse_39" data-name="Ellipse 39" cx="1" cy="1.5" rx="1" ry="1.5" transform="translate(58.117 33)" fill="#2a2a2a"/>
  <ellipse id="Ellipse_40" data-name="Ellipse 40" cx="2" cy="1.5" rx="2" ry="1.5" transform="translate(54.117 56)" fill="#2a2a2a"/>
  <ellipse id="Ellipse_41" data-name="Ellipse 41" cx="2" cy="1.5" rx="2" ry="1.5" transform="translate(47.117 56)" fill="#2a2a2a"/>
  <circle id="Ellipse_42" data-name="Ellipse 42" cx="1.5" cy="1.5" r="1.5" transform="translate(41.117 56)" fill="#2a2a2a"/>
  <path id="Path_845" data-name="Path 845" d="M85.309,328H65.639A1.639,1.639,0,0,0,64,329.639v13.113a1.639,1.639,0,0,0,1.639,1.639h19.67a1.639,1.639,0,0,0,1.639-1.639V329.639A1.639,1.639,0,0,0,85.309,328Zm-1.639,3.278v9.375L76.5,334.916a1.639,1.639,0,0,0-2.049,0l-7.171,5.737v-9.375ZM79,341.113H71.951l3.523-2.818Z" transform="translate(-54.165 -265.711)" fill="#2a2a2a"/>
  <path id="Path_846" data-name="Path 846" d="M221.309,328h-19.67A1.639,1.639,0,0,0,200,329.639v13.113a1.639,1.639,0,0,0,1.639,1.639h19.67a1.639,1.639,0,0,0,1.639-1.639V329.639A1.639,1.639,0,0,0,221.309,328Zm-1.639,3.278v9.375l-7.171-5.737a1.639,1.639,0,0,0-2.049,0l-7.171,5.737v-9.375ZM215,341.113h-7.046l3.523-2.818Z" transform="translate(-162.299 -265.711)" fill="#2a2a2a"/>
  <path id="Path_847" data-name="Path 847" d="M357.309,328h-19.67A1.639,1.639,0,0,0,336,329.639v13.113a1.639,1.639,0,0,0,1.639,1.639h19.67a1.639,1.639,0,0,0,1.639-1.639V329.639A1.639,1.639,0,0,0,357.309,328Zm-1.639,3.278v9.375l-7.171-5.737a1.639,1.639,0,0,0-2.049,0l-7.171,5.737v-9.375ZM351,341.113h-7.046l3.523-2.818Z" transform="translate(-270.433 -265.711)" fill="#2a2a2a"/>
  <path id="Path_848" data-name="Path 848" d="M94.753,424H81.639a1.639,1.639,0,0,0,0,3.278H94.753a1.639,1.639,0,0,0,0-3.278Z" transform="translate(-66.887 -342.041)" fill="#2a2a2a"/>
  <path id="Path_849" data-name="Path 849" d="M230.753,424H217.639a1.639,1.639,0,0,0,0,3.278h13.113a1.639,1.639,0,0,0,0-3.278Z" transform="translate(-175.021 -342.041)" fill="#2a2a2a"/>
  <path id="Path_850" data-name="Path 850" d="M366.753,424H353.639a1.639,1.639,0,1,0,0,3.278h13.113a1.639,1.639,0,1,0,0-3.278Z" transform="translate(-283.155 -342.041)" fill="#2a2a2a"/>
</svg>
