<svg id="monitor_1_" data-name="monitor (1)" xmlns="http://www.w3.org/2000/svg" width="154.791" height="149.631" viewBox="0 0 154.791 149.631">
  <g id="Group_193" data-name="Group 193" transform="translate(0 0)">
    <g id="Group_192" data-name="Group 192">
      <path id="Path_851" data-name="Path 851" d="M144.469,8.533H10.322A10.334,10.334,0,0,0,0,18.855v85.132a2.581,2.581,0,0,0,2.58,2.58H152.211a2.581,2.581,0,0,0,2.58-2.58V18.855A10.334,10.334,0,0,0,144.469,8.533Zm5.162,92.875H5.16V18.855a5.168,5.168,0,0,1,5.162-5.162H144.469a5.168,5.168,0,0,1,5.162,5.162Z" transform="translate(0 -8.533)" fill="#469dc9"/>
    </g>
  </g>
  <g id="Group_195" data-name="Group 195" transform="translate(0 92.875)">
    <g id="Group_194" data-name="Group 194">
      <path id="Path_852" data-name="Path 852" d="M152.211,315.733H2.58A2.581,2.581,0,0,0,0,318.313v12.9a10.334,10.334,0,0,0,10.322,10.322H144.469a10.334,10.334,0,0,0,10.322-10.322v-12.9A2.581,2.581,0,0,0,152.211,315.733Zm-2.58,15.477a5.168,5.168,0,0,1-5.162,5.162H10.322A5.168,5.168,0,0,1,5.16,331.21V320.893H149.631V331.21Z" transform="translate(0 -315.733)" fill="#469dc9"/>
    </g>
  </g>
  <g id="Group_197" data-name="Group 197" transform="translate(67.076 103.194)">
    <g id="Group_196" data-name="Group 196">
      <path id="Path_853" data-name="Path 853" d="M239.926,349.867H224.447a2.58,2.58,0,1,0,0,5.159h15.479a2.58,2.58,0,1,0,0-5.159Z" transform="translate(-221.867 -349.867)" fill="#469dc9"/>
    </g>
  </g>
  <g id="Group_199" data-name="Group 199" transform="translate(10.32 10.32)">
    <g id="Group_198" data-name="Group 198">
      <path id="Path_854" data-name="Path 854" d="M165.706,42.667H36.714a2.581,2.581,0,0,0-2.58,2.58V127.8a2.581,2.581,0,0,0,2.58,2.58H165.706a2.581,2.581,0,0,0,2.58-2.58V45.247A2.581,2.581,0,0,0,165.706,42.667Zm-2.58,82.555H39.293v-77.4H163.126Z" transform="translate(-34.134 -42.667)" fill="#469dc9"/>
    </g>
  </g>
  <g id="Group_201" data-name="Group 201" transform="translate(36.118 134.152)">
    <g id="Group_200" data-name="Group 200">
      <path id="Path_855" data-name="Path 855" d="M194.282,452.267H127.207a7.74,7.74,0,1,0,0,15.479h67.076a7.74,7.74,0,1,0,0-15.479Zm0,10.319H127.207a2.58,2.58,0,1,1,0-5.16h67.076a2.58,2.58,0,1,1,0,5.16Z" transform="translate(-119.467 -452.267)" fill="#469dc9"/>
    </g>
  </g>
  <g id="Group_203" data-name="Group 203" transform="translate(46.438 113.514)">
    <g id="Group_202" data-name="Group 202">
      <path id="Path_856" data-name="Path 856" d="M212.937,404.64c-8.56,0-12.9-6.076-12.9-18.059a2.581,2.581,0,0,0-2.58-2.58h-25.8a2.581,2.581,0,0,0-2.58,2.58c0,11.983-4.339,18.059-12.9,18.059a2.58,2.58,0,1,0,0,5.16h56.757a2.58,2.58,0,1,0,0-5.16Zm-44.19,0c3.176-3.519,5.046-8.759,5.423-15.479H194.95c.374,6.72,2.244,11.96,5.423,15.479Z" transform="translate(-153.601 -384.001)" fill="#469dc9"/>
    </g>
  </g>
  <g id="Group_205" data-name="Group 205" transform="translate(90.312 54.176)">
    <g id="Group_204" data-name="Group 204">
      <path id="Path_857" data-name="Path 857" d="M331.687,209.568l-6.228-6.228,3.465-3.465a2.579,2.579,0,0,0-1.081-4.3l-25.8-7.74a2.581,2.581,0,0,0-3.212,3.212l7.74,25.8a2.578,2.578,0,0,0,4.3,1.084l3.648-3.651,6.228,6.23a2.579,2.579,0,0,0,3.648,0l7.3-7.3A2.577,2.577,0,0,0,331.687,209.568Zm-9.12,5.475-5.67-5.673a3.372,3.372,0,0,0-4.762,0l-1.863,1.863-5.121-17.071,17.071,5.121-2,2a2.924,2.924,0,0,0,.005,4.13l5.985,5.985Z" transform="translate(-298.723 -187.731)" fill="#469dc9"/>
    </g>
  </g>
  <g id="Group_207" data-name="Group 207" transform="translate(33.538 20.639)">
    <g id="Group_206" data-name="Group 206">
      <path id="Path_858" data-name="Path 858" d="M185.749,76.8H113.514a2.581,2.581,0,0,0-2.58,2.58v12.9a2.581,2.581,0,0,0,2.58,2.58h72.236a2.581,2.581,0,0,0,2.58-2.58V79.38A2.581,2.581,0,0,0,185.749,76.8Zm-2.58,12.9H116.093V81.96H183.17Z" transform="translate(-110.934 -76.8)" fill="#469dc9"/>
    </g>
  </g>
  <g id="Group_209" data-name="Group 209" transform="translate(43.858 49.017)">
    <g id="Group_208" data-name="Group 208">
      <path id="Path_859" data-name="Path 859" d="M168.286,170.667H147.647a2.581,2.581,0,0,0-2.58,2.58v10.319a2.581,2.581,0,0,0,2.58,2.58h20.639a2.581,2.581,0,0,0,2.58-2.58V173.247A2.581,2.581,0,0,0,168.286,170.667Zm-2.58,10.319H150.226v-5.16h15.479Z" transform="translate(-145.067 -170.667)" fill="#469dc9"/>
    </g>
  </g>
  <g id="Group_211" data-name="Group 211" transform="translate(33.538 20.639)">
    <g id="Group_210" data-name="Group 210">
      <path id="Path_860" data-name="Path 860" d="M185.749,76.8H113.514a2.581,2.581,0,0,0-2.58,2.58V128.4a2.581,2.581,0,0,0,2.58,2.58H174.93a2.582,2.582,0,0,0,2.472-3.323l-3.266-10.889,10.874,3.264a2.581,2.581,0,0,0,3.32-2.471V79.38A2.581,2.581,0,0,0,185.749,76.8Zm-2.58,37.289-12.144-3.643a2.581,2.581,0,0,0-3.212,3.215l3.648,12.156H116.093V81.96H183.17Z" transform="translate(-110.934 -76.8)" fill="#469dc9"/>
    </g>
  </g>
</svg>
