<svg id="monitor_1_" data-name="monitor (1)" xmlns="http://www.w3.org/2000/svg" width="104.907" height="101.411" viewBox="0 0 104.907 101.411">
  <g id="Group_193" data-name="Group 193" transform="translate(0 0)">
    <g id="Group_192" data-name="Group 192">
      <path id="Path_851" data-name="Path 851" d="M97.912,8.533H7a7,7,0,0,0-7,7v57.7a1.749,1.749,0,0,0,1.748,1.748h101.41a1.749,1.749,0,0,0,1.748-1.748v-57.7A7,7,0,0,0,97.912,8.533Zm3.5,62.944H3.5V15.529A3.5,3.5,0,0,1,7,12.03H97.912a3.5,3.5,0,0,1,3.5,3.5Z" transform="translate(0 -8.533)" fill="#2a2a2a"/>
    </g>
  </g>
  <g id="Group_195" data-name="Group 195" transform="translate(0 62.944)">
    <g id="Group_194" data-name="Group 194">
      <path id="Path_852" data-name="Path 852" d="M103.159,315.733H1.748A1.749,1.749,0,0,0,0,317.481v8.741a7,7,0,0,0,7,7H97.912a7,7,0,0,0,7-7v-8.741A1.749,1.749,0,0,0,103.159,315.733Zm-1.749,10.489a3.5,3.5,0,0,1-3.5,3.5H7a3.5,3.5,0,0,1-3.5-3.5V319.23H101.41v6.992Z" transform="translate(0 -315.733)" fill="#2a2a2a"/>
    </g>
  </g>
  <g id="Group_197" data-name="Group 197" transform="translate(45.46 69.938)">
    <g id="Group_196" data-name="Group 196">
      <path id="Path_853" data-name="Path 853" d="M234.106,349.867H223.615a1.748,1.748,0,0,0,0,3.5h10.491a1.748,1.748,0,1,0,0-3.5Z" transform="translate(-221.867 -349.867)" fill="#2a2a2a"/>
    </g>
  </g>
  <g id="Group_199" data-name="Group 199" transform="translate(6.994 6.994)">
    <g id="Group_198" data-name="Group 198">
      <path id="Path_854" data-name="Path 854" d="M123.3,42.667H35.882a1.749,1.749,0,0,0-1.748,1.748v55.951a1.749,1.749,0,0,0,1.748,1.748h87.423a1.749,1.749,0,0,0,1.748-1.748V44.415A1.749,1.749,0,0,0,123.3,42.667Zm-1.748,55.95H37.631V46.164h83.926Z" transform="translate(-34.134 -42.667)" fill="#2a2a2a"/>
    </g>
  </g>
  <g id="Group_201" data-name="Group 201" transform="translate(24.478 90.92)">
    <g id="Group_200" data-name="Group 200">
      <path id="Path_855" data-name="Path 855" d="M170.172,452.267h-45.46a5.245,5.245,0,1,0,0,10.491h45.46a5.245,5.245,0,1,0,0-10.491Zm0,6.994h-45.46a1.748,1.748,0,1,1,0-3.5h45.46a1.748,1.748,0,1,1,0,3.5Z" transform="translate(-119.467 -452.267)" fill="#2a2a2a"/>
    </g>
  </g>
  <g id="Group_203" data-name="Group 203" transform="translate(31.472 76.932)">
    <g id="Group_202" data-name="Group 202">
      <path id="Path_856" data-name="Path 856" d="M193.815,397.989c-5.8,0-8.742-4.118-8.742-12.239A1.749,1.749,0,0,0,183.325,384H165.84a1.749,1.749,0,0,0-1.748,1.748c0,8.122-2.941,12.239-8.742,12.239a1.748,1.748,0,1,0,0,3.5h38.466a1.748,1.748,0,1,0,0-3.5Zm-29.949,0c2.152-2.385,3.42-5.936,3.675-10.491h14.084c.253,4.555,1.521,8.106,3.675,10.491Z" transform="translate(-153.601 -384.001)" fill="#2a2a2a"/>
    </g>
  </g>
  <g id="Group_205" data-name="Group 205" transform="translate(61.207 36.717)">
    <g id="Group_204" data-name="Group 204">
      <path id="Path_857" data-name="Path 857" d="M321.064,202.53l-4.221-4.221,2.348-2.348a1.748,1.748,0,0,0-.733-2.911l-17.484-5.245a1.749,1.749,0,0,0-2.177,2.177l5.245,17.484a1.748,1.748,0,0,0,2.911.734l2.472-2.474,4.221,4.223a1.748,1.748,0,0,0,2.472,0L321.064,205A1.746,1.746,0,0,0,321.064,202.53Zm-6.181,3.71L311.04,202.4a2.286,2.286,0,0,0-3.228,0l-1.262,1.262-3.471-11.57,11.569,3.471-1.353,1.353a1.982,1.982,0,0,0,0,2.8l4.056,4.056Z" transform="translate(-298.723 -187.731)" fill="#2a2a2a"/>
    </g>
  </g>
  <g id="Group_207" data-name="Group 207" transform="translate(22.73 13.988)">
    <g id="Group_206" data-name="Group 206">
      <path id="Path_858" data-name="Path 858" d="M161.639,76.8H112.682a1.749,1.749,0,0,0-1.748,1.748v8.742a1.749,1.749,0,0,0,1.748,1.748h48.957a1.749,1.749,0,0,0,1.748-1.748V78.548A1.749,1.749,0,0,0,161.639,76.8Zm-1.748,8.742h-45.46V80.3h45.46Z" transform="translate(-110.934 -76.8)" fill="#2a2a2a"/>
    </g>
  </g>
  <g id="Group_209" data-name="Group 209" transform="translate(29.724 33.221)">
    <g id="Group_208" data-name="Group 208">
      <path id="Path_859" data-name="Path 859" d="M160.8,170.667H146.815a1.749,1.749,0,0,0-1.748,1.748v6.994a1.749,1.749,0,0,0,1.748,1.748H160.8a1.749,1.749,0,0,0,1.748-1.748v-6.994A1.749,1.749,0,0,0,160.8,170.667Zm-1.749,6.994H148.564v-3.5h10.491Z" transform="translate(-145.067 -170.667)" fill="#2a2a2a"/>
    </g>
  </g>
  <g id="Group_211" data-name="Group 211" transform="translate(22.73 13.988)">
    <g id="Group_210" data-name="Group 210">
      <path id="Path_860" data-name="Path 860" d="M161.639,76.8H112.682a1.749,1.749,0,0,0-1.748,1.748v33.221a1.749,1.749,0,0,0,1.748,1.748h41.624a1.75,1.75,0,0,0,1.675-2.252l-2.214-7.38,7.37,2.212a1.749,1.749,0,0,0,2.25-1.675V78.548A1.749,1.749,0,0,0,161.639,76.8Zm-1.748,25.272-8.23-2.469a1.749,1.749,0,0,0-2.177,2.179l2.472,8.239H114.431V80.3h45.46Z" transform="translate(-110.934 -76.8)" fill="#2a2a2a"/>
    </g>
  </g>
</svg>
