<svg id="monitor_2_" data-name="monitor (2)" xmlns="http://www.w3.org/2000/svg" width="145.116" height="125.768" viewBox="0 0 145.116 125.768">
  <path id="Path_861" data-name="Path 861" d="M133.023,0H12.093A12.107,12.107,0,0,0,0,12.093V94.326a12.107,12.107,0,0,0,12.093,12.093H60.465v-4.837H12.093a7.256,7.256,0,0,1-7.256-7.256V12.093a7.256,7.256,0,0,1,7.256-7.256h120.93a7.256,7.256,0,0,1,7.256,7.256V94.326a7.256,7.256,0,0,1-7.256,7.256H130.6v4.837h2.419a12.107,12.107,0,0,0,12.093-12.093V12.093A12.107,12.107,0,0,0,133.023,0Zm0,0" fill="#469dc9"/>
  <path id="Path_862" data-name="Path 862" d="M160.93,111.814v-77.4A2.419,2.419,0,0,0,158.512,32H42.419A2.419,2.419,0,0,0,40,34.419v82.233a2.419,2.419,0,0,0,2.419,2.419H105.3v-4.837H44.837v-77.4H156.093v74.977Zm0,0" transform="translate(-27.907 -22.326)" fill="#469dc9"/>
  <path id="Path_863" data-name="Path 863" d="M72,64h4.837v4.837H72Zm0,0" transform="translate(-50.233 -44.651)" fill="#469dc9"/>
  <path id="Path_864" data-name="Path 864" d="M72,96h9.674v4.837H72Zm0,0" transform="translate(-50.233 -66.977)" fill="#469dc9"/>
  <path id="Path_865" data-name="Path 865" d="M72,128h9.674v4.837H72Zm0,0" transform="translate(-50.233 -89.302)" fill="#469dc9"/>
  <path id="Path_866" data-name="Path 866" d="M72,160h9.674v4.837H72Zm0,0" transform="translate(-50.233 -111.628)" fill="#469dc9"/>
  <path id="Path_867" data-name="Path 867" d="M72,192h9.674v4.837H72Zm0,0" transform="translate(-50.233 -133.953)" fill="#469dc9"/>
  <path id="Path_868" data-name="Path 868" d="M72,224h9.674v4.837H72Zm0,0" transform="translate(-50.233 -156.279)" fill="#469dc9"/>
  <path id="Path_869" data-name="Path 869" d="M72,256h9.674v4.837H72Zm0,0" transform="translate(-50.233 -178.605)" fill="#469dc9"/>
  <path id="Path_870" data-name="Path 870" d="M229.4,125.023H156.837v-6.254l4.463-4.463,3.2,4.8a2.421,2.421,0,0,0,1.77,1.076h.242a2.419,2.419,0,0,0,1.71-.709L178.6,109.095l5.546,5.546a2.362,2.362,0,0,0,1.819.706,2.439,2.439,0,0,0,1.751-.866L197.954,102.2l10.233,12.284a2.439,2.439,0,0,0,1.751.866,2.342,2.342,0,0,0,1.819-.706l5.546-5.546,3.127,3.127a2.336,2.336,0,0,0,1.881.7,2.424,2.424,0,0,0,1.763-.967l7.256-9.674-3.869-2.9-5.582,7.445-2.866-2.866a2.418,2.418,0,0,0-3.42,0l-5.384,5.384-10.4-12.48a2.508,2.508,0,0,0-3.72,0l-10.4,12.48-5.384-5.384a2.418,2.418,0,0,0-3.42,0l-10.009,10.009-3.2-4.8a2.419,2.419,0,0,0-3.722-.367l-3.118,3.134V96H152v31.442a2.419,2.419,0,0,0,2.419,2.419H229.4Zm0,0" transform="translate(-106.047 -66.977)" fill="#469dc9"/>
  <path id="Path_871" data-name="Path 871" d="M152,64h14.512v4.837H152Zm0,0" transform="translate(-106.046 -44.651)" fill="#469dc9"/>
  <path id="Path_872" data-name="Path 872" d="M216,64h4.837v4.837H216Zm0,0" transform="translate(-150.698 -44.651)" fill="#469dc9"/>
  <path id="Path_873" data-name="Path 873" d="M152,224h9.674v4.837H152Zm0,0" transform="translate(-106.046 -156.279)" fill="#469dc9"/>
  <path id="Path_874" data-name="Path 874" d="M200,224h4.837v4.837H200Zm0,0" transform="translate(-139.535 -156.279)" fill="#469dc9"/>
  <path id="Path_875" data-name="Path 875" d="M152,256h9.674v4.837H152Zm0,0" transform="translate(-106.046 -178.605)" fill="#469dc9"/>
  <path id="Path_876" data-name="Path 876" d="M200,256h4.837v4.837H200Zm0,0" transform="translate(-139.535 -178.605)" fill="#469dc9"/>
  <path id="Path_877" data-name="Path 877" d="M248,224h4.837v4.837H248Zm0,0" transform="translate(-173.023 -156.279)" fill="#469dc9"/>
  <path id="Path_878" data-name="Path 878" d="M344,224h9.674v4.837H344Zm0,0" transform="translate(-240 -156.279)" fill="#469dc9"/>
  <path id="Path_879" data-name="Path 879" d="M392,224h4.837v4.837H392Zm0,0" transform="translate(-273.488 -156.279)" fill="#469dc9"/>
  <path id="Path_880" data-name="Path 880" d="M344,256h9.674v4.837H344Zm0,0" transform="translate(-240 -178.605)" fill="#469dc9"/>
  <path id="Path_881" data-name="Path 881" d="M392,256h4.837v4.837H392Zm0,0" transform="translate(-273.488 -178.605)" fill="#469dc9"/>
  <path id="Path_882" data-name="Path 882" d="M270.42,251.432a7.278,7.278,0,0,0-5.9,1.63c-.048.039-.095.08-.143.124a7.24,7.24,0,0,0-9.674,0,7.541,7.541,0,0,0-7.256-1.44V239.5a7.458,7.458,0,0,0-6.047-7.418,7.256,7.256,0,0,0-8.47,7.159v29.589l-6.419-3.85a6.642,6.642,0,0,0-6.434-.242l-.383.189a6.693,6.693,0,0,0-.894,11.428l15.142,10.813a2.417,2.417,0,0,0,1.405.445h38.7a2.419,2.419,0,0,0,2.419-2.419V258.85A7.459,7.459,0,0,0,270.42,251.432Zm1.209,31.345H236.124l-14.512-10.364a1.853,1.853,0,0,1,.242-3.166l.38-.188a1.828,1.828,0,0,1,1.777.067l10.083,6.047a2.419,2.419,0,0,0,3.674-2.07v-33.86a2.421,2.421,0,0,1,.854-1.846,2.394,2.394,0,0,1,1.988-.536,2.618,2.618,0,0,1,2,2.641v19.09a2.419,2.419,0,1,0,4.837,0,2.419,2.419,0,0,1,4.837,0,2.419,2.419,0,1,0,4.837,0,2.419,2.419,0,0,1,4.837,0,2.419,2.419,0,1,0,4.837,0,2.418,2.418,0,0,1,2.841-2.382,2.618,2.618,0,0,1,2,2.641Zm0,0" transform="translate(-150.699 -161.847)" fill="#469dc9"/>
  <path id="Path_883" data-name="Path 883" d="M120,64h4.837v67.721H120Zm0,0" transform="translate(-83.721 -44.651)" fill="#469dc9"/>
</svg>
