<svg id="monitor_2_" data-name="monitor (2)" xmlns="http://www.w3.org/2000/svg" width="98.351" height="85.237" viewBox="0 0 98.351 85.237">
  <path id="Path_861" data-name="Path 861" d="M90.155,0H8.2A8.206,8.206,0,0,0,0,8.2V63.928a8.206,8.206,0,0,0,8.2,8.2H40.979V68.845H8.2a4.918,4.918,0,0,1-4.918-4.918V8.2A4.918,4.918,0,0,1,8.2,3.278H90.155A4.918,4.918,0,0,1,95.072,8.2V63.928a4.918,4.918,0,0,1-4.918,4.918H88.515v3.278h1.639a8.206,8.206,0,0,0,8.2-8.2V8.2A8.206,8.206,0,0,0,90.155,0Zm0,0" fill="#2a2a2a"/>
  <path id="Path_862" data-name="Path 862" d="M121.959,86.093V33.639A1.639,1.639,0,0,0,120.32,32H41.639A1.639,1.639,0,0,0,40,33.639V89.371a1.639,1.639,0,0,0,1.639,1.639H84.258V87.732H43.278V35.278h75.4V86.093Zm0,0" transform="translate(-31.804 -25.443)" fill="#2a2a2a"/>
  <path id="Path_863" data-name="Path 863" d="M72,64h3.278v3.278H72Zm0,0" transform="translate(-57.247 -50.887)" fill="#2a2a2a"/>
  <path id="Path_864" data-name="Path 864" d="M72,96h6.557v3.278H72Zm0,0" transform="translate(-57.247 -76.33)" fill="#2a2a2a"/>
  <path id="Path_865" data-name="Path 865" d="M72,128h6.557v3.278H72Zm0,0" transform="translate(-57.247 -101.773)" fill="#2a2a2a"/>
  <path id="Path_866" data-name="Path 866" d="M72,160h6.557v3.278H72Zm0,0" transform="translate(-57.247 -127.216)" fill="#2a2a2a"/>
  <path id="Path_867" data-name="Path 867" d="M72,192h6.557v3.278H72Zm0,0" transform="translate(-57.247 -152.66)" fill="#2a2a2a"/>
  <path id="Path_868" data-name="Path 868" d="M72,224h6.557v3.278H72Zm0,0" transform="translate(-57.247 -178.103)" fill="#2a2a2a"/>
  <path id="Path_869" data-name="Path 869" d="M72,256h6.557v3.278H72Zm0,0" transform="translate(-57.247 -203.546)" fill="#2a2a2a"/>
  <path id="Path_870" data-name="Path 870" d="M204.454,115.67H155.279v-4.239l3.025-3.025,2.168,3.256a1.641,1.641,0,0,0,1.2.729h.164a1.639,1.639,0,0,0,1.159-.48l7.037-7.037,3.759,3.759a1.6,1.6,0,0,0,1.233.479,1.653,1.653,0,0,0,1.187-.587l6.935-8.326,6.935,8.326a1.653,1.653,0,0,0,1.187.587,1.587,1.587,0,0,0,1.233-.479l3.759-3.759,2.119,2.119a1.583,1.583,0,0,0,1.275.475,1.643,1.643,0,0,0,1.195-.656l4.918-6.557-2.622-1.967-3.783,5.046-1.943-1.943a1.639,1.639,0,0,0-2.318,0l-3.649,3.649L184.4,96.584a1.7,1.7,0,0,0-2.521,0l-7.048,8.458-3.649-3.649a1.639,1.639,0,0,0-2.318,0l-6.783,6.783-2.168-3.256a1.64,1.64,0,0,0-2.523-.249l-2.113,2.124V96H152v21.309a1.639,1.639,0,0,0,1.639,1.639h50.814Zm0,0" transform="translate(-120.856 -76.33)" fill="#2a2a2a"/>
  <path id="Path_871" data-name="Path 871" d="M152,64h9.835v3.278H152Zm0,0" transform="translate(-120.856 -50.887)" fill="#2a2a2a"/>
  <path id="Path_872" data-name="Path 872" d="M216,64h3.278v3.278H216Zm0,0" transform="translate(-171.742 -50.887)" fill="#2a2a2a"/>
  <path id="Path_873" data-name="Path 873" d="M152,224h6.557v3.278H152Zm0,0" transform="translate(-120.856 -178.103)" fill="#2a2a2a"/>
  <path id="Path_874" data-name="Path 874" d="M200,224h3.278v3.278H200Zm0,0" transform="translate(-159.021 -178.103)" fill="#2a2a2a"/>
  <path id="Path_875" data-name="Path 875" d="M152,256h6.557v3.278H152Zm0,0" transform="translate(-120.856 -203.546)" fill="#2a2a2a"/>
  <path id="Path_876" data-name="Path 876" d="M200,256h3.278v3.278H200Zm0,0" transform="translate(-159.021 -203.546)" fill="#2a2a2a"/>
  <path id="Path_877" data-name="Path 877" d="M248,224h3.278v3.278H248Zm0,0" transform="translate(-197.186 -178.103)" fill="#2a2a2a"/>
  <path id="Path_878" data-name="Path 878" d="M344,224h6.557v3.278H344Zm0,0" transform="translate(-273.515 -178.103)" fill="#2a2a2a"/>
  <path id="Path_879" data-name="Path 879" d="M392,224h3.278v3.278H392Zm0,0" transform="translate(-311.68 -178.103)" fill="#2a2a2a"/>
  <path id="Path_880" data-name="Path 880" d="M344,256h6.557v3.278H344Zm0,0" transform="translate(-273.515 -203.546)" fill="#2a2a2a"/>
  <path id="Path_881" data-name="Path 881" d="M392,256h3.278v3.278H392Zm0,0" transform="translate(-311.68 -203.546)" fill="#2a2a2a"/>
  <path id="Path_882" data-name="Path 882" d="M252.884,245.164a4.932,4.932,0,0,0-4,1.1c-.033.026-.064.054-.1.084a4.907,4.907,0,0,0-6.557,0,5.111,5.111,0,0,0-4.918-.976v-8.3a5.055,5.055,0,0,0-4.1-5.027,4.918,4.918,0,0,0-5.74,4.852v20.054l-4.35-2.609a4.5,4.5,0,0,0-4.36-.164l-.259.128a4.536,4.536,0,0,0-.606,7.745l10.262,7.328a1.638,1.638,0,0,0,.952.3h26.227a1.639,1.639,0,0,0,1.639-1.639V250.191A5.055,5.055,0,0,0,252.884,245.164Zm.82,21.244H229.64l-9.835-7.024a1.256,1.256,0,0,1,.164-2.146l.258-.127a1.239,1.239,0,0,1,1.2.046l6.834,4.1a1.639,1.639,0,0,0,2.49-1.4V236.9a1.641,1.641,0,0,1,.579-1.251,1.622,1.622,0,0,1,1.347-.363,1.775,1.775,0,0,1,1.353,1.79v12.938a1.639,1.639,0,1,0,3.278,0,1.639,1.639,0,0,1,3.278,0,1.639,1.639,0,1,0,3.278,0,1.639,1.639,0,0,1,3.278,0,1.639,1.639,0,1,0,3.278,0,1.639,1.639,0,0,1,1.926-1.614,1.775,1.775,0,0,1,1.353,1.79Zm0,0" transform="translate(-171.744 -184.449)" fill="#2a2a2a"/>
  <path id="Path_883" data-name="Path 883" d="M120,64h3.278v45.9H120Zm0,0" transform="translate(-95.412 -50.887)" fill="#2a2a2a"/>
</svg>
