<svg xmlns="http://www.w3.org/2000/svg" xmlns:xlink="http://www.w3.org/1999/xlink" width="149.985" height="149.985" viewBox="0 0 149.985 149.985">
  <defs>
    <linearGradient id="linear-gradient" x1="-0.234" y1="1" x2="1.289" y2="-0.115" gradientUnits="objectBoundingBox">
      <stop offset="0" stop-color="#469dc9"/>
      <stop offset="1" stop-color="#38c172"/>
    </linearGradient>
  </defs>
  <g id="Group_152" data-name="Group 152" transform="translate(-1062 -2767.155)" opacity="0.9">
    <g id="Group_151" data-name="Group 151">
      <path id="Path_768" data-name="Path 768" d="M58.873,57.526V1H52.623V57.526a18.726,18.726,0,0,0,0,36.934v56.526h6.249V94.459a18.726,18.726,0,0,0,0-36.934ZM55.748,88.491a12.5,12.5,0,1,1,12.5-12.5A12.511,12.511,0,0,1,55.748,88.491Z" transform="translate(1137.489 2766.155)" fill="url(#linear-gradient)"/>
      <path id="Path_769" data-name="Path 769" d="M16.623,1V23.154a18.726,18.726,0,0,0,0,36.934v90.9h6.249v-90.9a18.726,18.726,0,0,0,0-36.934V1ZM32.247,41.621a12.5,12.5,0,1,1-12.5-12.5A12.511,12.511,0,0,1,32.247,41.621Z" transform="translate(1061 2766.155)" fill="url(#linear-gradient)"/>
      <path id="Path_770" data-name="Path 770" d="M34.623,1V95.022a18.726,18.726,0,0,0,0,36.934v19.029h6.249V131.956a18.726,18.726,0,0,0,0-36.934V1ZM50.247,113.489a12.5,12.5,0,1,1-12.5-12.5A12.511,12.511,0,0,1,50.247,113.489Z" transform="translate(1099.244 2766.155)" fill="url(#linear-gradient)"/>
    </g>
  </g>
</svg>
