<svg xmlns="http://www.w3.org/2000/svg" width="104.907" height="104.907" viewBox="0 0 104.907 104.907">
  <g id="repair" transform="translate(-0.001)">
    <path id="Path_884" data-name="Path 884" d="M46.265,31.3a4.863,4.863,0,1,0,4.862,4.862A4.869,4.869,0,0,0,46.265,31.3Zm0,6.622a1.759,1.759,0,1,1,1.758-1.759A1.761,1.761,0,0,1,46.265,37.926Zm0,0" transform="translate(-32.919 -24.89)" fill="#2a2a2a"/>
    <path id="Path_885" data-name="Path 885" d="M109.887,31.3a4.863,4.863,0,1,0,4.862,4.863A4.869,4.869,0,0,0,109.887,31.3Zm0,6.622a1.759,1.759,0,1,1,1.758-1.759A1.761,1.761,0,0,1,109.887,37.926Zm0,0" transform="translate(-83.504 -24.89)" fill="#2a2a2a"/>
    <path id="Path_886" data-name="Path 886" d="M173.511,31.3a4.863,4.863,0,1,0,4.862,4.863A4.868,4.868,0,0,0,173.511,31.3Zm0,6.622a1.759,1.759,0,1,1,1.759-1.759A1.761,1.761,0,0,1,173.511,37.926Zm0,0" transform="translate(-134.093 -24.89)" fill="#2a2a2a"/>
    <path id="Path_887" data-name="Path 887" d="M99.217,0H5.689A5.7,5.7,0,0,0,0,5.69V74.18a5.7,5.7,0,0,0,5.69,5.69H15.7a1.551,1.551,0,0,0,.126,2.051l7.456,7.456a31.815,31.815,0,0,0-1.464,3.529H11.276a1.552,1.552,0,0,0-1.551,1.552v8.9a1.552,1.552,0,0,0,1.551,1.552H41.9a1.552,1.552,0,0,0,1.552-1.552,8.587,8.587,0,1,1,17.174,0,1.552,1.552,0,0,0,1.552,1.552H92.8a1.552,1.552,0,0,0,1.552-1.552v-8.9A1.552,1.552,0,0,0,92.8,92.906H82.258a31.814,31.814,0,0,0-1.464-3.529l7.457-7.456a1.552,1.552,0,0,0,.126-2.051H99.216a5.7,5.7,0,0,0,5.69-5.69V35.788a1.552,1.552,0,1,0-3.1,0V74.18a2.589,2.589,0,0,1-2.587,2.586H85.292l-9.147-9.147V57.005a1.552,1.552,0,0,0-1.552-1.552H71.8V45.891l2.19-2.022a1.552,1.552,0,0,0,.43-1.6l-3.724-12a1.553,1.553,0,0,0-1.482-1.092H65.074a1.553,1.553,0,0,0-1.482,1.092l-3.724,12a1.552,1.552,0,0,0,.43,1.6l2.191,2.022v9.563H59.695a1.552,1.552,0,0,0-1.552,1.552V61.04H45.935V58.683l5.96-5.96a1.551,1.551,0,0,0,.455-1.1V38.9a1.551,1.551,0,0,0-.462-1.1l-8.276-8.173a1.552,1.552,0,0,0-2.643,1.1V44.561L36.934,47.1,32.9,44.561v-.884a1.552,1.552,0,1,0-3.1,0v1.741a1.551,1.551,0,0,0,.725,1.313l5.587,3.518a1.55,1.55,0,0,0,1.654,0l5.587-3.518a1.551,1.551,0,0,0,.725-1.313V34.44l5.173,5.108V50.983l-5.96,5.96a1.552,1.552,0,0,0-.455,1.1v3.031a1.552,1.552,0,0,0-1.241,1.521V73.136A31.824,31.824,0,0,0,38.06,74.6l-7.023-7.023V58.04a1.552,1.552,0,0,0-.455-1.1l-5.96-5.96V39.548L29.8,34.44v1.968a1.552,1.552,0,1,0,3.1,0V30.727a1.552,1.552,0,0,0-2.643-1.1L21.98,37.8a1.55,1.55,0,0,0-.461,1.1V51.626a1.551,1.551,0,0,0,.455,1.1l5.96,5.96v8.936l-9.147,9.147H5.689A2.589,2.589,0,0,1,3.1,74.18V22.554h98.7v6a1.552,1.552,0,0,0,3.1,0V5.69A5.7,5.7,0,0,0,99.217,0ZM65.093,44.071l-1.97-1.818,3.1-9.974H68.07l3.1,9.974L69.2,44.071a1.553,1.553,0,0,0-.5,1.141V55.454h-3.1V45.212a1.554,1.554,0,0,0-.5-1.141Zm7.949,14.486v9.019L66.018,74.6a31.981,31.981,0,0,0-3.53-1.464V62.593a1.552,1.552,0,0,0-1.241-1.521V58.558H73.041ZM38.491,77.863a28.742,28.742,0,0,1,5.1-2.117,1.552,1.552,0,0,0,1.1-1.485V64.144H59.384V74.262a1.553,1.553,0,0,0,1.1,1.485,28.744,28.744,0,0,1,5.1,2.117,1.553,1.553,0,0,0,1.827-.272l7.156-7.156,8.979,8.98,0,0,1.407,1.406L77.8,87.979a1.553,1.553,0,0,0-.272,1.827,28.693,28.693,0,0,1,2.117,5.1,1.552,1.552,0,0,0,1.484,1.1H91.25V101.8H75.472a23.5,23.5,0,0,0-32.98-19.911,1.552,1.552,0,0,0,1.263,2.836A20.394,20.394,0,0,1,72.362,101.8H63.627a11.691,11.691,0,0,0-23.176,0H31.715A20.162,20.162,0,0,1,38.1,88.485a1.552,1.552,0,0,0-2.123-2.264,23.585,23.585,0,0,0-7.37,15.583H12.828V96.01H22.946a1.552,1.552,0,0,0,1.485-1.1,28.694,28.694,0,0,1,2.117-5.1,1.553,1.553,0,0,0-.272-1.827l-7.156-7.156,1.407-1.406,0,0,8.979-8.98,7.156,7.156a1.553,1.553,0,0,0,1.827.272ZM3.1,19.45V5.69A2.589,2.589,0,0,1,5.689,3.1H99.217A2.589,2.589,0,0,1,101.8,5.69V19.45Zm0,0" transform="translate(0)" fill="#2a2a2a"/>
  </g>
</svg>
