<svg id="data" xmlns="http://www.w3.org/2000/svg" width="149.954" height="149.954" viewBox="0 0 149.954 149.954">
  <path id="Path_837" data-name="Path 837" d="M48,160h9.674v4.837H48Zm0,0" transform="translate(-33.488 -111.628)" fill="#469dc9"/>
  <path id="Path_838" data-name="Path 838" d="M142.7,38.7a7.265,7.265,0,0,0,7.256-7.256V7.256A7.265,7.265,0,0,0,142.7,0H108.837a7.265,7.265,0,0,0-7.256,7.256V31.442a7.265,7.265,0,0,0,7.256,7.256h7.256v4.837h-4.837v4.837h12.093V72.558h-9.981a16.91,16.91,0,0,0-6.965-4.119c.012-.244.017-.481.017-.718a19.335,19.335,0,0,0-35.645-10.4,19.248,19.248,0,0,0-7.89-1.7A19.456,19.456,0,0,0,44.8,68.108,16.813,16.813,0,0,0,39.7,70.14H21.767V62.884h9.674A7.265,7.265,0,0,0,38.7,55.628V7.256A7.265,7.265,0,0,0,31.442,0H7.256A7.265,7.265,0,0,0,0,7.256V55.628a7.265,7.265,0,0,0,7.256,7.256H16.93V74.977H34.553A16.836,16.836,0,0,0,32.2,79.814H21.767v26.6H12.093a7.265,7.265,0,0,0-7.256,7.256v21.767H0V142.7a7.265,7.265,0,0,0,7.256,7.256h38.7a7.265,7.265,0,0,0,7.256-7.256v-7.256H48.372V113.675a7.265,7.265,0,0,0-7.256-7.256H26.6V84.651h4.837a16.952,16.952,0,0,0,16.93,16.93h53.209A16.943,16.943,0,0,0,118.318,87.07h9.868v19.349h-16.93v43.535h38.7V106.419h-16.93V82.233H118.309a16.74,16.74,0,0,0-1.5-4.837h11.382V48.372h12.093V43.535h-4.837V38.7Zm-108.837,0H4.837V14.512H33.861ZM7.256,4.837H31.442a2.42,2.42,0,0,1,2.419,2.419V9.674H4.837V7.256A2.42,2.42,0,0,1,7.256,4.837ZM4.837,55.628V43.535H33.861V55.628a2.42,2.42,0,0,1-2.419,2.419H7.256A2.42,2.42,0,0,1,4.837,55.628ZM48.372,142.7a2.42,2.42,0,0,1-2.419,2.419H7.256A2.42,2.42,0,0,1,4.837,142.7v-2.419H48.372Zm-4.837-29.023v21.767H9.674V113.675a2.42,2.42,0,0,1,2.419-2.419H41.116A2.42,2.42,0,0,1,43.535,113.675Zm72.558,31.442V130.6h29.023v14.512Zm29.023-19.349H116.093V111.256h29.023ZM101.582,96.744H48.372a12.088,12.088,0,0,1-1.451-24.089l1.587-.191.448-1.535a14.471,14.471,0,0,1,21.518-8.3l2.309,1.424,1.151-2.46a14.478,14.478,0,0,1,27.456,8.364l-.365,2.393,2.391.363a12.085,12.085,0,0,1-1.835,24.031Zm7.256-91.907H142.7a2.42,2.42,0,0,1,2.419,2.419v16.93h-38.7V7.256A2.42,2.42,0,0,1,108.837,4.837Zm-2.419,26.6V29.023h38.7v2.419a2.42,2.42,0,0,1-2.419,2.419H108.837A2.42,2.42,0,0,1,106.419,31.442ZM130.6,43.535H120.93V38.7H130.6Zm0,0" fill="#469dc9"/>
  <path id="Path_839" data-name="Path 839" d="M400,384h4.837v4.837H400Zm0,0" transform="translate(-279.07 -267.907)" fill="#469dc9"/>
  <path id="Path_840" data-name="Path 840" d="M448,448h4.837v4.837H448Zm0,0" transform="translate(-312.558 -312.558)" fill="#469dc9"/>
  <path id="Path_841" data-name="Path 841" d="M432,384h9.674v4.837H432Zm0,0" transform="translate(-301.395 -267.907)" fill="#469dc9"/>
  <path id="Path_842" data-name="Path 842" d="M400,448h9.674v4.837H400Zm0,0" transform="translate(-279.07 -312.558)" fill="#469dc9"/>
</svg>
