<svg id="data" xmlns="http://www.w3.org/2000/svg" width="101.629" height="101.629" viewBox="0 0 101.629 101.629">
  <path id="Path_837" data-name="Path 837" d="M48,160h6.557v3.278H48Zm0,0" transform="translate(-38.165 -127.216)" fill="#2a2a2a"/>
  <path id="Path_838" data-name="Path 838" d="M96.711,26.227a4.924,4.924,0,0,0,4.918-4.918V4.918A4.924,4.924,0,0,0,96.711,0H73.763a4.924,4.924,0,0,0-4.918,4.918V21.309a4.924,4.924,0,0,0,4.918,4.918H78.68v3.278H75.4v3.278h8.2V49.175H76.833a11.461,11.461,0,0,0-4.721-2.792c.008-.166.011-.326.011-.487A13.1,13.1,0,0,0,47.966,38.85,13.045,13.045,0,0,0,42.619,37.7a13.186,13.186,0,0,0-12.255,8.458,11.4,11.4,0,0,0-3.46,1.377H14.753V42.619h6.557A4.924,4.924,0,0,0,26.227,37.7V4.918A4.924,4.924,0,0,0,21.309,0H4.918A4.924,4.924,0,0,0,0,4.918V37.7a4.924,4.924,0,0,0,4.918,4.918h6.557v8.2H23.417a11.41,11.41,0,0,0-1.594,3.278H14.753V72.124H8.2a4.924,4.924,0,0,0-4.918,4.918V91.794H0v4.918a4.924,4.924,0,0,0,4.918,4.918H31.144a4.924,4.924,0,0,0,4.918-4.918V91.794H32.784V77.041a4.924,4.924,0,0,0-4.918-4.918H18.031V57.371h3.278A11.489,11.489,0,0,0,32.784,68.845H68.845A11.483,11.483,0,0,0,80.188,59.01h6.688V72.124H75.4v29.505h26.227V72.124H90.155V55.732H80.182a11.345,11.345,0,0,0-1.02-3.278h7.714V32.784h8.2V29.505H91.794V26.227Zm-73.763,0H3.278V9.835h19.67ZM4.918,3.278H21.309a1.64,1.64,0,0,1,1.639,1.639V6.557H3.278V4.918A1.64,1.64,0,0,1,4.918,3.278ZM3.278,37.7v-8.2h19.67v8.2a1.64,1.64,0,0,1-1.639,1.639H4.918A1.64,1.64,0,0,1,3.278,37.7Zm29.505,59.01a1.64,1.64,0,0,1-1.639,1.639H4.918a1.64,1.64,0,0,1-1.639-1.639V95.072H32.784Zm-3.278-19.67V91.794H6.557V77.041A1.64,1.64,0,0,1,8.2,75.4h19.67A1.64,1.64,0,0,1,29.505,77.041ZM78.68,98.351V88.516h19.67v9.835Zm19.67-13.113H78.68V75.4h19.67ZM68.845,65.567H32.784A8.193,8.193,0,0,1,31.8,49.241l1.076-.13.3-1.04a9.807,9.807,0,0,1,14.584-5.624l1.565.965.78-1.667a9.812,9.812,0,0,1,18.608,5.668l-.247,1.622,1.621.246a8.191,8.191,0,0,1-1.244,16.287ZM73.763,3.278H96.711a1.64,1.64,0,0,1,1.639,1.639V16.392H72.124V4.918A1.64,1.64,0,0,1,73.763,3.278ZM72.124,21.309V19.67H98.351v1.639a1.64,1.64,0,0,1-1.639,1.639H73.763A1.64,1.64,0,0,1,72.124,21.309Zm16.392,8.2H81.959V26.227h6.557Zm0,0" fill="#2a2a2a"/>
  <path id="Path_839" data-name="Path 839" d="M400,384h3.278v3.278H400Zm0,0" transform="translate(-318.041 -305.32)" fill="#2a2a2a"/>
  <path id="Path_840" data-name="Path 840" d="M448,448h3.278v3.278H448Zm0,0" transform="translate(-356.206 -356.206)" fill="#2a2a2a"/>
  <path id="Path_841" data-name="Path 841" d="M432,384h6.557v3.278H432Zm0,0" transform="translate(-343.485 -305.32)" fill="#2a2a2a"/>
  <path id="Path_842" data-name="Path 842" d="M400,448h6.557v3.278H400Zm0,0" transform="translate(-318.041 -356.206)" fill="#2a2a2a"/>
</svg>
