<svg xmlns="http://www.w3.org/2000/svg" xmlns:xlink="http://www.w3.org/1999/xlink" width="160.5" height="150.391" viewBox="0 0 160.5 150.391">
  <defs>
    <linearGradient id="linear-gradient" x1="-0.234" y1="1" x2="1.289" y2="-0.115" gradientUnits="objectBoundingBox">
      <stop offset="0" stop-color="#469dc9"/>
      <stop offset="1" stop-color="#38c172"/>
    </linearGradient>
  </defs>
  <g id="stack-layer-pile-element-material" transform="translate(-1.191 -0.93)" opacity="0.9">
    <path id="Path_767" data-name="Path 767" d="M81.441,151.321l80.25-28.335-44.239-15.62,44.239-15.62-44.239-15.62,44.239-15.62-44.239-15.62,44.239-15.62L81.441.93,1.191,29.265,45.43,44.885,1.191,60.505,45.43,76.125,1.191,91.746l44.239,15.62L1.191,122.986ZM20.127,29.265,81.441,7.615l61.314,21.65L107.984,41.542h0L81.441,50.915,54.9,41.542h0Zm0,31.24L54.9,48.228,81.441,57.6l26.543-9.372,34.771,12.277L107.984,72.783h0L81.441,82.155,54.9,72.783h0Zm0,31.24L54.9,79.468,81.441,88.84l26.543-9.372,34.771,12.277-34.771,12.277h0L81.441,113.4,54.9,104.023h0Zm87.857,18.963,34.771,12.277-61.314,21.65-61.314-21.65L54.9,110.709l26.543,9.372Z" transform="translate(0 0)" fill="url(#linear-gradient)"/>
  </g>
</svg>
