<svg id="rocket" xmlns="http://www.w3.org/2000/svg" width="104.907" height="104.907" viewBox="0 0 104.907 104.907">
  <g id="Group_213" data-name="Group 213" transform="translate(51.549 49.261)">
    <g id="Group_212" data-name="Group 212">
      <path id="Path_888" data-name="Path 888" d="M255.086,241.019a2.049,2.049,0,1,0,0,2.9A2.049,2.049,0,0,0,255.086,241.019Z" transform="translate(-251.587 -240.418)" fill="#2a2a2a"/>
    </g>
  </g>
  <g id="Group_215" data-name="Group 215" transform="translate(63.641 20.78)">
    <g id="Group_214" data-name="Group 214">
      <path id="Path_889" data-name="Path 889" d="M328.087,104.418a10.245,10.245,0,1,0,0,14.489A10.24,10.24,0,0,0,328.087,104.418Zm-2.9,11.591a6.147,6.147,0,1,1,0-8.693A6.155,6.155,0,0,1,325.189,116.009Z" transform="translate(-310.603 -101.415)" fill="#2a2a2a"/>
    </g>
  </g>
  <g id="Group_217" data-name="Group 217" transform="translate(19.674 0)">
    <g id="Group_216" data-name="Group 216">
      <path id="Path_890" data-name="Path 890" d="M180.651.6a2.042,2.042,0,0,0-1.522-.6A91.023,91.023,0,0,0,154.522,5.1c-10.507,3.71-19.265,9.021-26.031,15.787-1.516,1.516-2.991,3.124-4.4,4.794-6.689-3.938-12.05-2.7-15.439-.889-7.8,4.176-12.632,15.514-12.632,23.624a2.049,2.049,0,0,0,3.5,1.449,13.044,13.044,0,0,1,10.848-3.64l.718.718A72.069,72.069,0,0,0,107.7,56.89a5.8,5.8,0,0,0,.248,3.559,19.4,19.4,0,0,0-5.533,3.9c-5.274,5.274-6.345,18.128-6.388,18.673a2.049,2.049,0,0,0,2.042,2.21q.081,0,.161-.006c.545-.043,13.4-1.114,18.673-6.388a19.4,19.4,0,0,0,3.9-5.532,5.786,5.786,0,0,0,3.561.246,72.076,72.076,0,0,0,9.95-3.384l.718.718a13.044,13.044,0,0,1-3.64,10.848,2.049,2.049,0,0,0,1.449,3.5c8.11,0,19.448-4.83,23.624-12.632,1.814-3.388,3.048-8.749-.889-15.439,1.669-1.411,3.277-2.886,4.794-4.4,6.766-6.766,12.077-15.524,15.787-26.03A91.021,91.021,0,0,0,181.25,2.122,2.049,2.049,0,0,0,180.651.6ZM100.6,44c1.273-6.16,4.97-12.919,9.986-15.6,3.352-1.794,7.016-1.618,10.911.514a82.847,82.847,0,0,0-8.609,14.033,2.16,2.16,0,0,0-1.085-.637A17.513,17.513,0,0,0,100.6,44ZM114,75.941c-2.817,2.817-9.426,4.3-13.6,4.91.607-4.177,2.093-10.786,4.91-13.6a14.766,14.766,0,0,1,5.246-3.448l6.9,6.9A14.763,14.763,0,0,1,114,75.941Zm9.341-6.357a1.923,1.923,0,0,1-1.79-.581l-4.013-4.013L112.25,59.7a1.924,1.924,0,0,1-.583-1.791,66.531,66.531,0,0,1,2.558-7.826L131.17,67.026A66.488,66.488,0,0,1,123.346,69.584Zm29.506,1.083c-2.685,5.016-9.444,8.713-15.6,9.985A17.439,17.439,0,0,0,138.928,69.4a2.14,2.14,0,0,0-.623-1.035,82.876,82.876,0,0,0,14.033-8.609C154.469,63.652,154.645,67.316,152.852,70.667Zm4.62-20.805a74.369,74.369,0,0,1-5.909,5.3,78.721,78.721,0,0,1-16.334,10.126L115.964,46.024a78.708,78.708,0,0,1,10.125-16.334,74.357,74.357,0,0,1,5.3-5.91A63.89,63.89,0,0,1,154.681,9.4L171.85,26.571A63.886,63.886,0,0,1,157.471,49.862Zm15.853-27.613L159,7.928A92.118,92.118,0,0,1,176.982,4.27,92.134,92.134,0,0,1,173.324,22.249Z" transform="translate(-96.018 0)" fill="#2a2a2a"/>
    </g>
  </g>
  <g id="Group_219" data-name="Group 219" transform="translate(39.959 84.033)">
    <g id="Group_218" data-name="Group 218">
      <path id="Path_891" data-name="Path 891" d="M204.313,410.721a2.049,2.049,0,0,0-2.9,0l-5.794,5.8a2.049,2.049,0,0,0,2.9,2.9l5.794-5.8A2.049,2.049,0,0,0,204.313,410.721Z" transform="translate(-195.021 -410.121)" fill="#2a2a2a"/>
    </g>
  </g>
  <g id="Group_221" data-name="Group 221" transform="translate(10.981 55.056)">
    <g id="Group_220" data-name="Group 220">
      <path id="Path_892" data-name="Path 892" d="M62.886,269.3a2.049,2.049,0,0,0-2.9,0l-5.8,5.794a2.049,2.049,0,1,0,2.9,2.9l5.8-5.795A2.049,2.049,0,0,0,62.886,269.3Z" transform="translate(-53.592 -268.701)" fill="#2a2a2a"/>
    </g>
  </g>
  <g id="Group_223" data-name="Group 223" transform="translate(17.386 86.932)">
    <g id="Group_222" data-name="Group 222">
      <path id="Path_893" data-name="Path 893" d="M102.229,424.871a2.049,2.049,0,0,0-2.9,0l-13.88,13.878a2.049,2.049,0,0,0,2.9,2.9l13.88-13.878A2.049,2.049,0,0,0,102.229,424.871Z" transform="translate(-84.851 -424.271)" fill="#2a2a2a"/>
    </g>
  </g>
  <g id="Group_225" data-name="Group 225" transform="translate(0.994 86.932)">
    <g id="Group_224" data-name="Group 224">
      <path id="Path_894" data-name="Path 894" d="M22.229,424.871a2.049,2.049,0,0,0-2.9,0L5.452,438.749a2.049,2.049,0,0,0,2.9,2.9l13.88-13.878A2.049,2.049,0,0,0,22.229,424.871Z" transform="translate(-4.851 -424.271)" fill="#2a2a2a"/>
    </g>
  </g>
  <g id="Group_227" data-name="Group 227" transform="translate(0 69.544)">
    <g id="Group_226" data-name="Group 226">
      <path id="Path_895" data-name="Path 895" d="M17.377,340.01a2.049,2.049,0,0,0-2.9,0L.6,353.89a2.049,2.049,0,1,0,2.9,2.9l13.878-13.88A2.049,2.049,0,0,0,17.377,340.01Z" transform="translate(-0.001 -339.41)" fill="#2a2a2a"/>
    </g>
  </g>
  <g id="Group_229" data-name="Group 229" transform="translate(57.344 40.568)">
    <g id="Group_228" data-name="Group 228">
      <path id="Path_896" data-name="Path 896" d="M286.266,198.59a2.049,2.049,0,0,0-2.9,0l-2.9,2.9a2.049,2.049,0,0,0,2.9,2.9l2.9-2.9A2.049,2.049,0,0,0,286.266,198.59Z" transform="translate(-279.871 -197.99)" fill="#2a2a2a"/>
    </g>
  </g>
</svg>
