<svg xmlns="http://www.w3.org/2000/svg" width="149.985" height="149.985" viewBox="0 0 149.985 149.985"><g transform="translate(-1062 -2767.155)"><path d="M58.873,57.526V1H52.623V57.526a18.726,18.726,0,0,0,0,36.934v56.526h6.249V94.459a18.726,18.726,0,0,0,0-36.934ZM55.748,88.491a12.5,12.5,0,1,1,12.5-12.5A12.511,12.511,0,0,1,55.748,88.491Z" transform="translate(1137.489 2766.155)" fill="#469dc9"/><path d="M16.623,1V23.154a18.726,18.726,0,0,0,0,36.934v90.9h6.249v-90.9a18.726,18.726,0,0,0,0-36.934V1ZM32.247,41.621a12.5,12.5,0,1,1-12.5-12.5A12.511,12.511,0,0,1,32.247,41.621Z" transform="translate(1061 2766.155)" fill="#469dc9"/><path d="M34.623,1V95.022a18.726,18.726,0,0,0,0,36.934v19.029h6.249V131.956a18.726,18.726,0,0,0,0-36.934V1ZM50.247,113.489a12.5,12.5,0,1,1-12.5-12.5A12.511,12.511,0,0,1,50.247,113.489Z" transform="translate(1099.244 2766.155)" fill="#469dc9"/></g></svg>