<svg xmlns="http://www.w3.org/2000/svg" xmlns:xlink="http://www.w3.org/1999/xlink" width="198.297" height="198.297" viewBox="0 0 198.297 198.297">
  <defs>
    <linearGradient id="linear-gradient" x1="-0.19" y1="1.055" x2="1.196" y2="-0.11" gradientUnits="objectBoundingBox">
      <stop offset="0" stop-color="#469dc9"/>
      <stop offset="1" stop-color="#38c172"/>
    </linearGradient>
  </defs>
  <g id="monitor" opacity="0.9">
    <path id="Path_811" data-name="Path 811" d="M13.22,218.913H64.058l-3.306,6.61H59.49c-10.348,0-16.525,4.941-16.525,13.22a6.61,6.61,0,0,0,6.61,6.61h99.148a6.61,6.61,0,0,0,6.61-6.61c0-8.278-6.177-13.22-16.525-13.22h-1.262l-3.306-6.61h50.838a13.219,13.219,0,0,0,13.22-13.22V90.02a13.219,13.219,0,0,0-13.22-13.22H148.723a3.3,3.3,0,1,0,0,6.61h36.355a6.61,6.61,0,0,1,6.61,6.61V205.694a6.61,6.61,0,0,1-6.61,6.61H13.22a6.61,6.61,0,0,1-6.61-6.61V90.02a6.61,6.61,0,0,1,6.61-6.61H49.575a3.3,3.3,0,1,0,0-6.61H13.22A13.219,13.219,0,0,0,0,90.02V205.694a13.219,13.219,0,0,0,13.22,13.22Zm135.5,19.829H49.575c0-1.635,0-6.61,9.915-6.61h79.318c9.915,0,9.915,4.974,9.915,6.61Zm-21.875-19.829,3.3,6.61H68.142l3.3-6.61Zm0,0" transform="translate(-0.001 -47.056)" fill="url(#linear-gradient)"/>
    <path id="Path_812" data-name="Path 812" d="M196.076,206.776H44.049a3.3,3.3,0,0,1-3.306-3.3V120.849a3.305,3.305,0,0,1,3.306-3.306h9.914a3.3,3.3,0,1,0,0-6.61H44.049a9.915,9.915,0,0,0-9.915,9.915v82.623a9.915,9.915,0,0,0,9.915,9.914H196.076a9.915,9.915,0,0,0,9.915-9.914V120.849a9.915,9.915,0,0,0-9.915-9.915h-9.914a3.3,3.3,0,1,0,0,6.61h9.914a3.305,3.305,0,0,1,3.306,3.306v82.623A3.3,3.3,0,0,1,196.076,206.776Zm0,0" transform="translate(-20.914 -67.969)" fill="url(#linear-gradient)"/>
    <path id="Path_813" data-name="Path 813" d="M208.1,392.535a3.3,3.3,0,0,0,0,6.61h33.05a3.3,3.3,0,0,0,0-6.61Zm0,0" transform="translate(-125.482 -240.507)" fill="url(#linear-gradient)"/>
    <path id="Path_814" data-name="Path 814" d="M209.605,19.212,204.094,13.7a6.609,6.609,0,0,0-8.35-.806l-8.262,5.455a40.782,40.782,0,0,0-8.041-3.278l-1.947-9.743A6.608,6.608,0,0,0,171.018,0h-7.8a6.61,6.61,0,0,0-6.481,5.312l-2,9.729a40.786,40.786,0,0,0-8.015,3.337l-8.229-5.489a6.608,6.608,0,0,0-8.348.818l-5.521,5.516a6.633,6.633,0,0,0-.8,8.333l5.459,8.262A41.137,41.137,0,0,0,126,43.86L116.26,45.8a6.635,6.635,0,0,0-5.327,6.478v7.807a6.629,6.629,0,0,0,5.315,6.481l9.726,1.983a41.209,41.209,0,0,0,3.334,8.014l-5.486,8.245a6.63,6.63,0,0,0,.823,8.35l5.511,5.511a6.609,6.609,0,0,0,8.348.82l8.263-5.455a40.874,40.874,0,0,0,8.041,3.278l1.946,9.743a6.611,6.611,0,0,0,6.462,5.31h7.8a6.61,6.61,0,0,0,6.481-5.31l2-9.731a40.694,40.694,0,0,0,8.015-3.337l8.229,5.5a6.609,6.609,0,0,0,8.353-.82l5.516-5.511a6.636,6.636,0,0,0,.818-8.35l-5.46-8.262a42.761,42.761,0,0,0,3.306-7.988l-3.166-.941,3.153.888L218,66.565a6.634,6.634,0,0,0,5.3-6.478V52.281a6.629,6.629,0,0,0-5.315-6.481l-9.726-1.982a41.183,41.183,0,0,0-3.334-8.015l5.5-8.233a6.606,6.606,0,0,0-.823-8.357ZM199.427,32.12a6.634,6.634,0,0,0-.284,6.819,35.918,35.918,0,0,1,2.784,6.749,6.607,6.607,0,0,0,5.029,4.646l9.737,1.947v7.807l-9.737,1.947a6.607,6.607,0,0,0-5.029,4.646,36.049,36.049,0,0,1-2.784,6.752,6.61,6.61,0,0,0,.287,6.819l5.5,8.233L199.416,94l-8.232-5.5a6.64,6.64,0,0,0-6.822-.29,35.959,35.959,0,0,1-6.752,2.787,6.622,6.622,0,0,0-4.626,5.026l-1.967,9.74h-7.8l-1.95-9.743a6.633,6.633,0,0,0-4.649-5.027,35.876,35.876,0,0,1-6.746-2.779,6.753,6.753,0,0,0-3.2-.809,6.514,6.514,0,0,0-3.635,1.1L134.808,94l-5.516-5.514,5.505-8.236a6.634,6.634,0,0,0,.284-6.819A35.914,35.914,0,0,1,132.3,66.68a6.607,6.607,0,0,0-5.03-4.646l-9.726-1.947V52.281l9.737-1.947a6.607,6.607,0,0,0,5.029-4.646,36.09,36.09,0,0,1,2.784-6.752,6.61,6.61,0,0,0-.287-6.819l-5.5-8.232,5.516-5.516,8.232,5.5a6.612,6.612,0,0,0,6.822.29,35.852,35.852,0,0,1,6.752-2.785,6.626,6.626,0,0,0,4.643-5.027l1.95-9.74h7.8l1.95,9.743a6.631,6.631,0,0,0,4.649,5.027,35.876,35.876,0,0,1,6.746,2.779,6.609,6.609,0,0,0,6.822-.287l8.232-5.5,5.516,5.516Zm0,0" transform="translate(-67.969 0)" fill="url(#linear-gradient)"/>
    <path id="Path_815" data-name="Path 815" d="M214.174,76.8a26.439,26.439,0,1,0,26.439,26.439A26.439,26.439,0,0,0,214.174,76.8Zm0,46.269A19.829,19.829,0,1,1,234,103.24,19.829,19.829,0,0,1,214.174,123.069Zm0,0" transform="translate(-115.025 -47.056)" fill="url(#linear-gradient)"/>
    <path id="Path_816" data-name="Path 816" d="M254.076,139.839a3.306,3.306,0,1,1-3.306-3.3A3.306,3.306,0,0,1,254.076,139.839Zm0,0" transform="translate(-151.622 -83.655)" fill="url(#linear-gradient)"/>
  </g>
</svg>
