<svg xmlns="http://www.w3.org/2000/svg" width="24.034" height="19.531" viewBox="0 0 24.034 19.531">
  <path id="twitter" d="M24.033,5.31a9.868,9.868,0,0,1-2.832.777,4.951,4.951,0,0,0,2.168-2.728,9.877,9.877,0,0,1-3.131,1.2,4.935,4.935,0,0,0-8.4,4.5A14,14,0,0,1,1.673,3.9,4.936,4.936,0,0,0,3.2,10.484,4.911,4.911,0,0,1,.966,9.867c0,.02,0,.041,0,.062A4.933,4.933,0,0,0,4.92,14.764a4.942,4.942,0,0,1-2.227.084A4.935,4.935,0,0,0,7.3,18.272a9.893,9.893,0,0,1-6.124,2.11A9.972,9.972,0,0,1,0,20.313a13.953,13.953,0,0,0,7.558,2.216A13.933,13.933,0,0,0,21.586,8.5q0-.321-.014-.638a10.024,10.024,0,0,0,2.46-2.552Z" transform="translate(0.001 -2.998)" fill="#fff"/>
</svg>
