<svg xmlns="http://www.w3.org/2000/svg" width="104.814" height="82.757" viewBox="0 0 104.814 82.757">
  <g id="cloud-computing" transform="translate(0 -53.873)">
    <g id="Group_231" data-name="Group 231" transform="translate(0 53.873)">
      <g id="Group_230" data-name="Group 230" transform="translate(0 0)">
        <path id="Path_897" data-name="Path 897" d="M83.108,82.787a29.306,29.306,0,0,0-57.986-5.62l-.281,0a24.84,24.84,0,1,0,0,49.68H42.188a2.235,2.235,0,0,0,0-4.471H24.84a20.369,20.369,0,1,1,0-40.739c.6,0,1.231.032,1.934.1A2.237,2.237,0,0,0,29.2,79.811,24.835,24.835,0,0,1,78.64,83.194c0,.493-.037,1-.075,1.54l-.017.229A2.236,2.236,0,0,0,81,87.344a17.831,17.831,0,0,1,1.783-.09,17.56,17.56,0,1,1,0,35.12H64.541a2.235,2.235,0,0,0,0,4.471H82.784a22.03,22.03,0,0,0,.324-44.058Z" transform="translate(0 -53.873)" fill="#d2d2d2"/>
      </g>
    </g>
    <g id="Group_233" data-name="Group 233" transform="translate(35.158 64.379)">
      <g id="Group_232" data-name="Group 232" transform="translate(0 0)">
        <path id="Path_898" data-name="Path 898" d="M190.372,105.192A18.855,18.855,0,0,0,171.76,121.44a2.236,2.236,0,0,0,1.913,2.517,2.267,2.267,0,0,0,.3.021,2.235,2.235,0,0,0,2.212-1.933,14.368,14.368,0,0,1,14.182-12.382,2.235,2.235,0,0,0,0-4.471Z" transform="translate(-171.74 -105.192)" fill="#d2d2d2"/>
      </g>
    </g>
    <g id="Group_235" data-name="Group 235" transform="translate(42.028 100.161)">
      <g id="Group_234" data-name="Group 234">
        <path id="Path_899" data-name="Path 899" d="M227.229,288.185l-8.131-7.263a3.689,3.689,0,0,0-4.919,0l-8.131,7.264a2.235,2.235,0,0,0,2.978,3.334l5.377-4.8v27.5a2.235,2.235,0,0,0,4.471,0v-27.5l5.377,4.8a2.235,2.235,0,1,0,2.978-3.334Z" transform="translate(-205.302 -279.982)" fill="#d2d2d2"/>
      </g>
    </g>
  </g>
</svg>
