<svg xmlns="http://www.w3.org/2000/svg" width="663" height="410.088" viewBox="0 0 663 410.088">
  <g id="Group_10" data-name="Group 10" transform="translate(0 -0.001)">
    <rect id="Rectangle_68" data-name="Rectangle 68" width="350.19" height="281.332" transform="matrix(0.958, 0.288, -0.288, 0.958, 204.739, 0.001)" fill="#f1f1f1"/>
    <ellipse id="Ellipse_20" data-name="Ellipse 20" cx="160.668" cy="17.05" rx="160.668" ry="17.05" transform="translate(0 375.987)" fill="#3f3d56"/>
    <rect id="Rectangle_69" data-name="Rectangle 69" width="39.001" height="56.838" transform="translate(136.58 44.965)" fill="#2f2e41"/>
    <path id="Path_44" data-name="Path 44" d="M307.237,245.878s1.467,28.062-11.508,29.212c-9.078.805,17.7,25.671,17.7,25.671l23.015-31.868s-17.252,1.767-6.2-17.7Z" transform="translate(-163.119 -174.694)" fill="#ffb8b8"/>
    <path id="Path_45" data-name="Path 45" d="M336.449,268.9l-7.273,10.073-15.745,21.792s-13.149-12.211-17.9-19.792c-1.784-2.853-2.387-5.05-.656-5.7a.04.04,0,0,1,.026-.007,2.81,2.81,0,0,1,.774-.171.273.273,0,0,1,.046-.007,8.236,8.236,0,0,0,2.21-.5c10.6-3.961,9.3-28.71,9.3-28.71l23.018,5.312c-7.378,12.991-2.151,16.532,2.144,17.444a14.333,14.333,0,0,0,2.866.3C335.99,268.943,336.449,268.9,336.449,268.9Z" transform="translate(-163.118 -174.695)" opacity="0.1"/>
    <path id="Path_46" data-name="Path 46" d="M344.067,198.218c-4.214,12.476-10.675,23.844-23.844,23.844s-23.1-10.7-23.844-23.844c-.948-16.8,10.372-23.914,23.844-23.844C336.138,174.456,349.067,183.412,344.067,198.218Z" transform="translate(-163.97 -150.081)" fill="#2f2e41"/>
    <path id="Path_47" data-name="Path 47" d="M283.216,519.9l6.2,43.376s-5.311,26.557-2.656,45.146l2.656,19.475h12.393l3.541-20.36s3.541-21.245,3.541-30.983c0,0,9.737-44.261,3.541-53.113Z" transform="translate(-159.459 -269.016)" fill="#ffb8b8"/>
    <path id="Path_48" data-name="Path 48" d="M381.538,515.851l-6.2,46.032s5.311,26.557,2.656,45.146L375.341,626.5H362.948l-3.541-20.36s-3.541-21.246-3.541-30.983c0,0-9.737-46.917-3.541-55.769Z" transform="translate(-182.537 -267.623)" fill="#ffb8b8"/>
    <path id="Path_49" data-name="Path 49" d="M373.435,680.032s7.082-2.656,7.967.885,2.656,22.13,2.656,22.13,5.311,7.967,8.852,8.852,11.508,12.393,1.77,13.278-19.475-2.656-19.475-4.426-3.541-2.656-5.311-2.656-7.967-2.656-7.082-5.311,3.541-33.638,3.541-33.638Z" transform="translate(-186.827 -323.807)" fill="#2f2e41"/>
    <path id="Path_50" data-name="Path 50" d="M288.513,680.032s-7.082-2.656-7.967.885-2.656,22.13-2.656,22.13-5.311,7.967-8.852,8.852-11.508,12.393-1.771,13.278,19.475-2.656,19.475-4.426,3.541-2.656,5.311-2.656,7.967-2.656,7.082-5.311-3.541-33.638-3.541-33.638Z" transform="translate(-152.363 -323.807)" fill="#2f2e41"/>
    <circle id="Ellipse_21" data-name="Ellipse 21" cx="18.355" cy="18.355" r="18.355" transform="translate(139.04 44.862)" fill="#ffb8b8"/>
    <path id="Path_51" data-name="Path 51" d="M407.858,349.369s-37.177,15.936-40.718-.885a243.111,243.111,0,0,1-4.427-31.865.023.023,0,0,0-.013-.007c-.518-.315-18.834-11.555-15.227-27.1a23.426,23.426,0,0,1,4.617-9.188s.544-.354,1.469-.846a29.357,29.357,0,0,1,3.351-1.528c6.25-2.38,16.644-3.725,19.077,12.106,3.541,23.018,3.541,47.807,3.541,47.807s10.624,6.2,24.789,0,28.33-2.656,29.215,5.312S407.858,349.369,407.858,349.369Z" transform="translate(-181.415 -185.24)" fill="#ffb8b8"/>
    <path id="Path_52" data-name="Path 52" d="M266.6,290.419l-.19,5.882L264.3,362.615l-.354,11.017L232.97,408.159s-6.2,18.585-19.477,21.241,8.853-25.668,8.853-25.668l30.1-44.266.046-1.489A168.271,168.271,0,0,0,249.41,321a44.346,44.346,0,0,1-.5-13.758c1.233-9.876,9.358-14.158,14.158-15.844a24.231,24.231,0,0,1,2.7-.793.039.039,0,0,1,.026-.007c.4-.1.669-.151.774-.171A.271.271,0,0,1,266.6,290.419Z" transform="translate(-133.998 -190.026)" fill="#ffb8b8"/>
    <path id="Path_53" data-name="Path 53" d="M340.35,350.124v3.541c-12.906,15.772-41.472,8.322-51.879,4.918-2.446-.8-3.889-1.377-3.889-1.377a9.158,9.158,0,0,0,.885-3.541V345.7c0-2.656.879-.885,1.764-1.771s-2.649-6.2-2.649-6.2c-8.853-5.312-3.541-20.362-3.541-20.362l6.191-13.28V287.365a24.242,24.242,0,0,1,2.7-.793.04.04,0,0,1,.026-.007,2.808,2.808,0,0,1,.774-.171.275.275,0,0,1,.046-.007,8.239,8.239,0,0,0,2.21-.5,14.663,14.663,0,0,0,12.84,8.466c9.07.649,17.667-9.129,21.621-14.421a14.331,14.331,0,0,0,2.866.3,29.361,29.361,0,0,1,3.351-1.528l-3.935,16.532c-3.482,8.7,9.286,21.674,9.725,22.126a.023.023,0,0,1,.013.007v9.738l-.885,10.624-.885,2.656,1.771,2.656-.885,2.656.885,1.771C340.35,349.239,340.35,348.36,340.35,350.124Z" transform="translate(-158.166 -185.995)" fill="#d0cde1"/>
    <path id="Path_54" data-name="Path 54" d="M279.162,395.023l-2.656-.885s-31.868,79.67-10.623,83.211,37.179,9.737,40.72,3.541,1.77-28.327,1.77-28.327l3.541-.885s-6.2,32.753,6.2,30.1,46.917-7.082,46.917-10.623-31.868-80.015-31.868-80.015S319.882,399.449,279.162,395.023Z" transform="translate(-150.979 -224.694)" fill="#2f2e41"/>
    <circle id="Ellipse_22" data-name="Ellipse 22" cx="9.412" cy="9.412" r="9.412" transform="translate(146.84 10.488)" fill="#2f2e41"/>
    <path id="Path_55" data-name="Path 55" d="M314.556,155.081a9.412,9.412,0,0,1,8.47-9.365c-.309-.031-.623-.048-.941-.048a9.412,9.412,0,0,0,0,18.824c.318,0,.632-.017.941-.047a9.413,9.413,0,0,1-8.471-9.365Z" transform="translate(-169.598 -140.201)" fill="#2f2e41"/>
    <path id="Path_56" data-name="Path 56" d="M309.462,196.791s-.2-1.094-7.883,1.788-12.294,24.154-8.451,36.644c1.549,5.034.289,8.663-1.767,11.2-7.717,9.529-4.679,23.841,6.561,28.742q.476.208.971.41l4.8,2.882a21.971,21.971,0,0,1-3.059-18.366,52.848,52.848,0,0,0,.954-27.055c-.352-1.509-.751-3.066-1.2-4.653-3.843-13.451-1.974-11.9,11.477-25.349,0,0,7.686,5.765,14.412,8.647s12.491,5.765,7.686,15.373-16.334,18.255-8.647,30.746,8.647,7.686,7.686,12.491h0l-.961,4.8,5.765-5.765-3.843,7.686s12.491,0,16.334-9.608l1.922,1.922s7.686-13.451-6.726-25.942c0,0-4.8-2.882,1.922-12.491s1.56-30.266-7.087-34.109S309.462,196.791,309.462,196.791Z" transform="translate(-160.789 -157.21)" fill="#2f2e41"/>
    <path id="Path_57" data-name="Path 57" d="M468.368,405.218l25.848-8.1a94.734,94.734,0,0,0-9.655-30.818l-25.848,8.1a58.11,58.11,0,0,1,9.654,30.819Z" transform="translate(-219.867 -216.146)" fill="#38c172"/>
    <rect id="Rectangle_70" data-name="Rectangle 70" width="363.306" height="148.208" transform="translate(299.694 2.189)" fill="#3f3d56"/>
    <path id="Path_58" data-name="Path 58" d="M616.176,207.852H589.089a94.741,94.741,0,0,1,0-32.3h27.087A58.111,58.111,0,0,0,616.176,207.852Z" transform="translate(-264.267 -150.489)" fill="#38c172"/>
    <path id="Path_59" data-name="Path 59" d="M666.879,228.83h27.086a94.738,94.738,0,0,0,0-32.3H666.879A58.11,58.11,0,0,1,666.879,228.83Z" transform="translate(-291.521 -157.709)" fill="#469dc9"/>
    <path id="Path_60" data-name="Path 60" d="M758.536,171.845a243.155,243.155,0,0,1,3.762,68.116q-.77,8.893-2.2,17.711c-.435,2.673-.93,5.332-1.439,7.992-.292,1.524-.9,3.421.055,4.855,1.866,2.794,8.261,2.065,11.079,2.156,5.863.19,11.734.222,17.6.324l17.644.308,8.5.148c2.894.05,6.065.5,8.936.129,3.779-.487,2.859-4.445,2.8-7.386q-.17-8.72-.465-17.437-1.169-34.544-4.306-68.983c-.267-2.929-.1-6.434-.889-9.266-.319-1.145-.636-1.476-1.88-1.682-2.849-.471-6.243.025-9.125.045l-9.637.067-39.189.273a.984.984,0,0,0,0,1.967l32.122-.224,14.134-.1,7.709-.054c1.584-.011,3.065-.491,4.059,1.253.629,1.1.371,3.862.491,5.145q2.879,30.876,4.177,61.873.324,7.746.549,15.5.094,3.229.17,6.458.046,1.938.086,3.875c.027,1.332.579,3.944.1,5.168-1.032,2.61-5.63,1.487-7.879,1.448l-7.842-.137-15.683-.274-15.683-.274c-2.593-.045-5.189-.065-7.781-.176-.86-.037-1.721-.078-2.579-.139-2.556-.182-5.308.422-5.612-3.111-.188-2.18,1-5.187,1.377-7.368q.631-3.694,1.146-7.407.964-6.937,1.536-13.92a245.213,245.213,0,0,0-3.937-67.394c-.245-1.241-2.142-.716-1.9.523Z" transform="translate(-322.953 -148.103)" fill="#f1f1f1"/>
    <path id="Path_61" data-name="Path 61" d="M955.536,171.845a243.15,243.15,0,0,1,3.762,68.116q-.77,8.893-2.2,17.711c-.435,2.673-.93,5.332-1.439,7.992-.292,1.524-.9,3.421.055,4.855,1.866,2.794,8.261,2.065,11.079,2.156,5.863.19,11.734.222,17.6.324l17.644.308,8.5.148c2.894.05,6.065.5,8.936.129,3.779-.487,2.859-4.445,2.8-7.386q-.17-8.72-.465-17.437-1.169-34.544-4.306-68.983c-.267-2.929-.1-6.434-.889-9.266-.319-1.145-.636-1.476-1.88-1.682-2.849-.471-6.243.025-9.125.045l-9.637.067-39.189.273a.984.984,0,0,0,0,1.967l32.122-.224,14.134-.1,7.709-.054c1.584-.011,3.065-.491,4.059,1.253.629,1.1.371,3.862.491,5.145q2.879,30.876,4.177,61.873.324,7.746.549,15.5.094,3.229.17,6.458.046,1.938.086,3.875c.027,1.332.579,3.944.1,5.168-1.032,2.61-5.63,1.487-7.879,1.448l-7.842-.137-15.683-.274-15.683-.274c-2.593-.045-5.189-.065-7.781-.176-.86-.037-1.72-.078-2.579-.139-2.556-.182-5.308.422-5.612-3.111-.188-2.18,1-5.187,1.377-7.368q.631-3.694,1.146-7.407.964-6.937,1.536-13.92a245.218,245.218,0,0,0-3.937-67.394c-.245-1.241-2.142-.716-1.9.523Z" transform="translate(-390.763 -148.103)" fill="#f1f1f1"/>
    <path id="Path_62" data-name="Path 62" d="M772.009,180.222h13.012a.984.984,0,0,0,0-1.967H772.009a.984.984,0,0,0,0,1.967Z" transform="translate(-327.381 -151.417)" fill="#f1f1f1"/>
    <path id="Path_63" data-name="Path 63" d="M772.009,186.747l12.265-.464c1.262-.048,1.268-2.015,0-1.967l-12.265.464C770.747,184.827,770.741,186.794,772.009,186.747Z" transform="translate(-327.381 -153.503)" fill="#f1f1f1"/>
    <path id="Path_64" data-name="Path 64" d="M772.009,192.7h11.9a.984.984,0,0,0,0-1.967h-11.9a.984.984,0,0,0,0,1.967Z" transform="translate(-327.381 -155.711)" fill="#f1f1f1"/>
    <path id="Path_65" data-name="Path 65" d="M829.7,179.626c-2.67-1.393-5.094.9-5.47,3.516-.184,1.28-.224,3.029.592,4.117a5.155,5.155,0,0,0,3.765,1.658c2.54.157,5.242-1.26,5.866-3.86a4.82,4.82,0,0,0-3-5.713c-1.2-.415-1.714,1.484-.523,1.9a2.76,2.76,0,0,1,1.683,2.856,3.158,3.158,0,0,1-2.629,2.758c-1.624.373-3.527-.027-3.841-1.859-.235-1.37.509-4.743,2.563-3.671,1.121.585,2.117-1.112.993-1.7Z" transform="translate(-345.645 -151.744)" fill="#f1f1f1"/>
    <path id="Path_66" data-name="Path 66" d="M969.009,180.222h13.012a.984.984,0,0,0,0-1.967H969.009a.984.984,0,0,0,0,1.967Z" transform="translate(-395.191 -151.417)" fill="#f1f1f1"/>
    <path id="Path_67" data-name="Path 67" d="M969.009,186.747l12.265-.464c1.262-.048,1.268-2.015,0-1.967l-12.265.464C967.747,184.827,967.741,186.794,969.009,186.747Z" transform="translate(-395.191 -153.503)" fill="#f1f1f1"/>
    <path id="Path_68" data-name="Path 68" d="M969.009,192.7h11.9a.984.984,0,0,0,0-1.967h-11.9a.984.984,0,0,0,0,1.967Z" transform="translate(-395.191 -155.711)" fill="#f1f1f1"/>
    <path id="Path_69" data-name="Path 69" d="M1026.7,179.626c-2.67-1.393-5.094.9-5.47,3.516-.184,1.28-.224,3.029.592,4.117a5.155,5.155,0,0,0,3.765,1.658c2.539.157,5.241-1.26,5.866-3.86a4.82,4.82,0,0,0-3-5.713c-1.2-.415-1.714,1.484-.523,1.9a2.76,2.76,0,0,1,1.683,2.856,3.158,3.158,0,0,1-2.629,2.758c-1.624.373-3.527-.027-3.841-1.859-.235-1.37.509-4.743,2.564-3.671,1.121.585,2.117-1.112.993-1.7Z" transform="translate(-413.456 -151.744)" fill="#f1f1f1"/>
    <path id="Path_70" data-name="Path 70" d="M775.977,208.451q21.469.226,42.895-1.326l-.948-1.245c-2.338,5.924-2.274,12.169-1.964,18.436.078,1.57.57,3.688.252,5.243-.4,1.956-2.156,1.488-3.9,1.545q-5.769.187-11.541.268-5.451.077-10.9.061-2.565-.008-5.13-.036c-2.008-.022-4.291.561-4.81-1.765-.332-1.49,0-3.45,0-4.982l0-5.6.008-11.21a.984.984,0,0,0-1.967,0l-.009,13.7,0,6.228c0,1.237-.258,2.732.2,3.906,1.062,2.7,5.653,1.688,7.854,1.708q6.734.062,13.468-.02t13.464-.306c1.933-.064,4.608.375,5.194-2.009.411-1.671-.068-3.851-.156-5.556-.1-1.946-.208-3.893-.234-5.843a34.216,34.216,0,0,1,2.066-13.239.988.988,0,0,0-.949-1.245q-21.415,1.551-42.895,1.326a.984.984,0,0,0,0,1.967Z" transform="translate(-328.747 -160.678)" fill="#f1f1f1"/>
    <path id="Path_71" data-name="Path 71" d="M782.343,210.782a144.344,144.344,0,0,1,17.879,7.721c5.185,2.68,11.973,5.607,15.541,10.4.748,1,2.456.024,1.7-.993-3.644-4.89-9.917-7.768-15.186-10.548a147.829,147.829,0,0,0-19.41-8.473c-1.2-.425-1.709,1.475-.523,1.9Z" transform="translate(-331.033 -161.939)" fill="#f1f1f1"/>
    <path id="Path_72" data-name="Path 72" d="M821.572,206.42c-6.5,2.78-12.009,8.136-17.819,12.105q-9.433,6.444-19.427,11.994c-1.106.617-.115,2.317.993,1.7q9.973-5.569,19.428-11.994c5.809-3.968,11.319-9.326,17.819-12.105C823.726,207.623,822.725,205.928,821.572,206.42Z" transform="translate(-331.781 -161.082)" fill="#f1f1f1"/>
    <path id="Path_73" data-name="Path 73" d="M972.977,208.451q21.469.226,42.895-1.326l-.949-1.245c-2.338,5.924-2.274,12.169-1.964,18.436.078,1.57.57,3.688.252,5.243-.4,1.956-2.156,1.488-3.9,1.545q-5.769.187-11.541.268-5.451.077-10.9.061-2.565-.008-5.131-.036c-2.008-.022-4.291.561-4.809-1.765-.332-1.49,0-3.45,0-4.982l0-5.6.007-11.21a.984.984,0,0,0-1.967,0l-.009,13.7,0,6.228c0,1.237-.258,2.732.2,3.906,1.062,2.7,5.653,1.688,7.854,1.708q6.734.062,13.468-.02t13.464-.306c1.933-.064,4.608.375,5.194-2.009.411-1.671-.068-3.851-.156-5.556-.1-1.946-.208-3.893-.234-5.843a34.216,34.216,0,0,1,2.066-13.239.988.988,0,0,0-.948-1.245q-21.415,1.551-42.895,1.326a.984.984,0,0,0,0,1.967Z" transform="translate(-396.557 -160.678)" fill="#f1f1f1"/>
    <path id="Path_74" data-name="Path 74" d="M979.343,210.782a144.36,144.36,0,0,1,17.879,7.721c5.185,2.68,11.973,5.607,15.541,10.4.748,1,2.456.024,1.7-.993-3.644-4.89-9.917-7.768-15.186-10.548a147.828,147.828,0,0,0-19.41-8.473c-1.2-.426-1.709,1.475-.523,1.9Z" transform="translate(-398.844 -161.939)" fill="#f1f1f1"/>
    <path id="Path_75" data-name="Path 75" d="M1018.576,206.42c-6.5,2.78-12.009,8.136-17.819,12.105q-9.433,6.444-19.428,11.994c-1.105.617-.115,2.317.993,1.7q9.973-5.569,19.427-11.994c5.809-3.968,11.319-9.326,17.819-12.105C1020.73,207.623,1019.729,205.928,1018.576,206.42Z" transform="translate(-399.593 -161.082)" fill="#f1f1f1"/>
    <path id="Path_76" data-name="Path 76" d="M972.977,268.451q21.469.226,42.895-1.326l-.949-1.245c-2.338,5.924-2.274,12.169-1.964,18.436.078,1.57.57,3.688.252,5.243-.4,1.956-2.156,1.488-3.9,1.545q-5.769.186-11.541.268-5.451.077-10.9.061-2.565-.008-5.131-.036c-2.008-.022-4.291.561-4.809-1.765-.332-1.49,0-3.45,0-4.982l0-5.6.007-11.21a.984.984,0,0,0-1.967,0l-.009,13.7,0,6.228c0,1.237-.258,2.731.2,3.906,1.062,2.7,5.653,1.688,7.854,1.708q6.734.062,13.468-.02t13.464-.306c1.933-.064,4.608.375,5.194-2.009.411-1.672-.068-3.851-.156-5.556-.1-1.946-.208-3.893-.234-5.843a34.216,34.216,0,0,1,2.066-13.239.988.988,0,0,0-.948-1.245q-21.415,1.551-42.895,1.326a.984.984,0,0,0,0,1.967Z" transform="translate(-396.557 -181.331)" fill="#f1f1f1"/>
    <path id="Path_77" data-name="Path 77" d="M979.343,270.782a144.363,144.363,0,0,1,17.879,7.721c5.185,2.68,11.973,5.607,15.541,10.4.748,1,2.456.024,1.7-.993-3.644-4.89-9.917-7.768-15.186-10.548a147.822,147.822,0,0,0-19.41-8.473c-1.2-.425-1.709,1.475-.523,1.9Z" transform="translate(-398.844 -182.592)" fill="#f1f1f1"/>
    <path id="Path_78" data-name="Path 78" d="M1018.576,266.42c-6.5,2.78-12.009,8.136-17.819,12.105q-9.433,6.444-19.428,11.994c-1.105.617-.115,2.317.993,1.7q9.973-5.569,19.427-11.994c5.809-3.968,11.319-9.326,17.819-12.105C1020.73,267.623,1019.729,265.928,1018.576,266.42Z" transform="translate(-399.593 -181.735)" fill="#f1f1f1"/>
    <path id="Path_79" data-name="Path 79" d="M781.648,266.8q19.893.3,39.784-.159a.984.984,0,0,0,0-1.967q-19.89.461-39.784.159a.984.984,0,0,0,0,1.967Z" transform="translate(-330.699 -181.165)" fill="#f1f1f1"/>
    <path id="Path_80" data-name="Path 80" d="M783.349,280.395q20.45.326,40.9-.176a.984.984,0,0,0,0-1.967q-20.447.5-40.9.176A.984.984,0,0,0,783.349,280.395Z" transform="translate(-331.284 -185.838)" fill="#f1f1f1"/>
    <path id="Path_81" data-name="Path 81" d="M781.074,294.23l38.668-1.8c1.261-.059,1.268-2.026,0-1.967l-38.668,1.8C779.814,292.321,779.806,294.289,781.074,294.23Z" transform="translate(-330.502 -190.042)" fill="#f1f1f1"/>
    <path id="Path_82" data-name="Path 82" d="M872.922,252.789h36.807a.984.984,0,0,0,0-1.967H872.922a.984.984,0,0,0,0,1.967Z" transform="translate(-362.116 -176.396)" fill="#f1f1f1"/>
    <path id="Path_83" data-name="Path 83" d="M925.575,235.8l5.751,5.249c.658.6,2.467,1.84,2.875,2.624.845,1.623-.063,1.253-1.511,1.815a32.371,32.371,0,0,0-9.682,6.012c-.952.839.444,2.226,1.391,1.391a30.058,30.058,0,0,1,8.814-5.506c1.16-.459,3.361-.728,3.912-2.11.675-1.691-1.474-2.939-2.492-3.868l-7.667-7c-.934-.852-2.329.535-1.391,1.391Z" transform="translate(-379.574 -170.655)" fill="#f1f1f1"/>
    <path id="Path_84" data-name="Path 84" d="M790.879,336.83h27.086a94.732,94.732,0,0,0,0-32.3H790.879A58.11,58.11,0,0,1,790.879,336.83Z" transform="translate(-334.203 -194.885)" fill="#469dc9"/>
    <path id="Path_85" data-name="Path 85" d="M618.879,299.83h27.086a94.732,94.732,0,0,0,0-32.3H618.879A58.111,58.111,0,0,1,618.879,299.83Z" transform="translate(-274.998 -182.149)" fill="#469dc9"/>
    <path id="Path_86" data-name="Path 86" d="M879.879,191.83h27.086a94.732,94.732,0,0,0,0-32.3H879.879A58.11,58.11,0,0,1,879.879,191.83Z" transform="translate(-364.838 -144.974)" fill="#469dc9"/>
  </g>
</svg>
